<svg width="119" height="105" viewBox="0 0 119 105" fill="none" 
    xmlns="http://www.w3.org/2000/svg">
    <path d="M96.6875 8.20312H22.3125C17.1864 8.20312 13.0156 11.8833 13.0156 16.4062V96.7969C13.0156 101.32 17.1864 105 22.3125 105H96.6875C101.814 105 105.984 101.32 105.984 96.7969V16.4062C105.984 11.8833 101.814 8.20312 96.6875 8.20312Z" fill="#996459"/>
    <path d="M96.5945 14.7656C97.6727 14.7656 98.5469 15.5302 98.5469 16.4733V96.73C98.5469 97.6732 97.6727 98.4377 96.5945 98.4377H22.4055C21.3273 98.4377 20.4531 97.6732 20.4531 96.73V16.4731C20.4531 15.5302 21.3273 14.7656 22.4055 14.7656H96.5945Z" fill="white"/>
    <path d="M46.4844 44.2969H35.3281C33.2782 44.2969 31.6094 42.8244 31.6094 41.0156V31.1719C31.6094 29.3631 33.2782 27.8906 35.3281 27.8906H46.4844C48.5343 27.8906 50.2031 29.3631 50.2031 31.1719V41.0156C50.2031 42.8244 48.5343 44.2969 46.4844 44.2969ZM35.3281 31.1719V41.0156H46.4881L46.4844 31.1719H35.3281Z" fill="#B4B6BC"/>
    <path d="M61.3594 32.8125H55.7812C54.7535 32.8125 53.9219 32.0787 53.9219 31.1719C53.9219 30.265 54.7535 29.5312 55.7812 29.5312H61.3594C62.3871 29.5312 63.2188 30.265 63.2188 31.1719C63.2188 32.0787 62.3871 32.8125 61.3594 32.8125Z" fill="#5C546A"/>
    <path d="M83.6719 39.375H55.7812C54.7535 39.375 53.9219 38.6412 53.9219 37.7344C53.9219 36.8275 54.7535 36.0938 55.7812 36.0938H83.6719C84.6996 36.0938 85.5312 36.8275 85.5312 37.7344C85.5312 38.6412 84.6996 39.375 83.6719 39.375Z" fill="#868491"/>
    <path d="M74.375 55.7812H55.7812C54.7535 55.7812 53.9219 55.0475 53.9219 54.1406C53.9219 53.2338 54.7535 52.5 55.7812 52.5H74.375C75.4028 52.5 76.2344 53.2338 76.2344 54.1406C76.2344 55.0475 75.4028 55.7812 74.375 55.7812Z" fill="#5C546A"/>
    <path d="M83.6719 62.3438H55.7812C54.7535 62.3438 53.9219 61.61 53.9219 60.7031C53.9219 59.7963 54.7535 59.0625 55.7812 59.0625H83.6719C84.6996 59.0625 85.5312 59.7963 85.5312 60.7031C85.5312 61.61 84.6996 62.3438 83.6719 62.3438Z" fill="#868491"/>
    <path d="M63.2188 77.1094H55.7812C54.7535 77.1094 53.9219 76.3756 53.9219 75.4688C53.9219 74.5619 54.7535 73.8281 55.7812 73.8281H63.2188C64.2465 73.8281 65.0781 74.5619 65.0781 75.4688C65.0781 76.3756 64.2465 77.1094 63.2188 77.1094Z" fill="#5C546A"/>
    <path d="M83.6719 83.6719H55.7812C54.7535 83.6719 53.9219 82.9381 53.9219 82.0312C53.9219 81.1244 54.7535 80.3906 55.7812 80.3906H83.6719C84.6996 80.3906 85.5312 81.1244 85.5312 82.0312C85.5312 82.9381 84.6996 83.6719 83.6719 83.6719Z" fill="#868491"/>
    <path d="M66.9375 8.20312C65.9097 8.20312 65.0781 7.46936 65.0781 6.5625V4.92188C65.0781 4.01666 64.2447 3.28125 63.2188 3.28125H55.7812C54.7553 3.28125 53.9219 4.01666 53.9219 4.92188V6.5625C53.9219 7.46936 53.0903 8.20312 52.0625 8.20312C51.0347 8.20312 50.2031 7.46936 50.2031 6.5625V4.92188C50.2031 2.20787 52.7054 0 55.7812 0H63.2188C66.2946 0 68.7969 2.20787 68.7969 4.92188V6.5625C68.7969 7.46936 67.9653 8.20312 66.9375 8.20312Z" fill="#868491"/>
    <path d="M79.9531 4.92188H39.0469C38.02 4.92188 37.1875 5.65646 37.1875 6.5625V11.4844C37.1875 16.0148 41.3499 19.6875 46.4844 19.6875H72.5156C77.6501 19.6875 81.8125 16.0148 81.8125 11.4844V6.5625C81.8125 5.65646 80.98 4.92188 79.9531 4.92188Z" fill="#B4B6BC"/>
    <path d="M46.4844 65.625H35.3281C33.2782 65.625 31.6094 64.1525 31.6094 62.3438V52.5C31.6094 50.6912 33.2782 49.2188 35.3281 49.2188H46.4844C48.5343 49.2188 50.2031 50.6912 50.2031 52.5V62.3438C50.2031 64.1525 48.5343 65.625 46.4844 65.625ZM35.3281 52.5V62.3438H46.4881L46.4844 52.5H35.3281Z" fill="#B4B6BC"/>
    <path d="M46.4844 86.9531H35.3281C33.2782 86.9531 31.6094 85.4807 31.6094 83.6719V73.8281C31.6094 72.0193 33.2782 70.5469 35.3281 70.5469H46.4844C48.5343 70.5469 50.2031 72.0193 50.2031 73.8281V83.6719C50.2031 85.4807 48.5343 86.9531 46.4844 86.9531ZM35.3281 73.8281V83.6719H46.4881L46.4844 73.8281H35.3281Z" fill="#B4B6BC"/>
    <path d="M42.7656 60.7033C42.2898 60.7033 41.814 60.5431 41.451 60.2226L37.7322 56.9413C37.0059 56.3005 37.0059 55.2621 37.7322 54.6213C38.4586 53.9804 39.6353 53.9804 40.3616 54.6213L42.7656 56.7426L50.7479 49.6994C51.4742 49.0585 52.6509 49.0585 53.3773 49.6994C54.1036 50.3403 54.1036 51.3784 53.3773 52.0192L44.0804 60.2224C43.7171 60.5431 43.2413 60.7033 42.7656 60.7033Z" fill="#FF4F19"/>
</svg>
