<svg width="157" height="145" viewBox="0 0 157 145" fill="none" 
    xmlns="http://www.w3.org/2000/svg">
    <path d="M93.5085 40.7812L95.4131 37.2633C95.7939 36.5618 95.7531 35.7278 95.3051 35.0597C94.8574 34.3913 94.0691 33.9844 93.2188 33.9844H78.5C77.144 33.9844 76.0469 34.9977 76.0469 36.25V45.3125C76.0469 46.5648 77.144 47.5781 78.5 47.5781H93.2188C94.0691 47.5781 94.8575 47.1709 95.3055 46.5028C95.7535 45.8347 95.7942 45.0004 95.4134 44.2992L93.5085 40.7812Z" fill="#FF4F19"/>
    <path d="M78.5 54.375C77.144 54.375 76.0469 53.3617 76.0469 52.1094V33.9844C76.0469 32.7321 77.144 31.7188 78.5 31.7188C79.856 31.7188 80.9531 32.7321 80.9531 33.9844V52.1094C80.9531 53.3617 79.856 54.375 78.5 54.375Z" fill="#5C546A"/>
    <path d="M149.641 77.0312H110.391V108.75H149.641V77.0312Z" fill="#868491"/>
    <path d="M46.6094 77.0312H7.35938V108.75H46.6094V77.0312Z" fill="#868491"/>
    <path d="M105.484 79.2969H149.641C150.997 79.2969 152.094 78.2836 152.094 77.0312C152.094 75.7789 150.997 74.7656 149.641 74.7656H105.484C104.128 74.7656 103.031 75.7789 103.031 77.0312C103.031 78.2836 104.128 79.2969 105.484 79.2969Z" fill="#B4B6BC"/>
    <path d="M51.5156 79.2969H7.35938C6.00341 79.2969 4.90625 78.2836 4.90625 77.0312C4.90625 75.7789 6.00341 74.7656 7.35938 74.7656H51.5156C52.8716 74.7656 53.9688 75.7789 53.9688 77.0312C53.9688 78.2836 52.8716 79.2969 51.5156 79.2969Z" fill="#B4B6BC"/>
    <path d="M117.75 104.219C119.106 104.219 120.203 103.205 120.203 101.953V99.6875C120.203 98.4352 119.106 97.4219 117.75 97.4219C116.394 97.4219 115.297 98.4352 115.297 99.6875V101.953C115.297 103.205 116.394 104.219 117.75 104.219Z" fill="#5C546A"/>
    <path d="M125.109 104.219C126.465 104.219 127.562 103.205 127.562 101.953V99.6875C127.562 98.4352 126.465 97.4219 125.109 97.4219C123.753 97.4219 122.656 98.4352 122.656 99.6875V101.953C122.656 103.205 123.753 104.219 125.109 104.219Z" fill="#5C546A"/>
    <path d="M132.469 104.219C133.825 104.219 134.922 103.205 134.922 101.953V99.6875C134.922 98.4352 133.825 97.4219 132.469 97.4219C131.113 97.4219 130.016 98.4352 130.016 99.6875V101.953C130.016 103.205 131.113 104.219 132.469 104.219Z" fill="#5C546A"/>
    <path d="M139.828 104.219C141.184 104.219 142.281 103.205 142.281 101.953V99.6875C142.281 98.4352 141.184 97.4219 139.828 97.4219C138.472 97.4219 137.375 98.4352 137.375 99.6875V101.953C137.375 103.205 138.472 104.219 139.828 104.219Z" fill="#5C546A"/>
    <path d="M117.75 95.1562C119.106 95.1562 120.203 94.1429 120.203 92.8906V86.0938C120.203 84.8414 119.106 83.8281 117.75 83.8281C116.394 83.8281 115.297 84.8414 115.297 86.0938V92.8906C115.297 94.1429 116.394 95.1562 117.75 95.1562Z" fill="#5C546A"/>
    <path d="M125.109 95.1562C126.465 95.1562 127.562 94.1429 127.562 92.8906V86.0938C127.562 84.8414 126.465 83.8281 125.109 83.8281C123.753 83.8281 122.656 84.8414 122.656 86.0938V92.8906C122.656 94.1429 123.753 95.1562 125.109 95.1562Z" fill="#5C546A"/>
    <path d="M132.469 95.1562C133.825 95.1562 134.922 94.1429 134.922 92.8906V86.0938C134.922 84.8414 133.825 83.8281 132.469 83.8281C131.113 83.8281 130.016 84.8414 130.016 86.0938V92.8906C130.016 94.1429 131.113 95.1562 132.469 95.1562Z" fill="#5C546A"/>
    <path d="M139.828 95.1562C141.184 95.1562 142.281 94.1429 142.281 92.8906V86.0938C142.281 84.8414 141.184 83.8281 139.828 83.8281C138.472 83.8281 137.375 84.8414 137.375 86.0938V92.8906C137.375 94.1429 138.472 95.1562 139.828 95.1562Z" fill="#5C546A"/>
    <path d="M46.6094 69.1758H110.391L78.5 53.4688L46.6094 69.1758Z" fill="#B4B6BC"/>
    <path d="M107.871 70.2344H48.9961V111.016H107.871V70.2344Z" fill="#868491"/>
    <path d="M78.5 113.281C77.144 113.281 76.0469 112.268 76.0469 111.016V70.2344C76.0469 68.9821 77.144 67.9688 78.5 67.9688C79.856 67.9688 80.9531 68.9821 80.9531 70.2344V111.016C80.9531 112.268 79.856 113.281 78.5 113.281Z" fill="#B4B6BC"/>
    <path d="M68.6875 113.281C67.3315 113.281 66.2344 112.268 66.2344 111.016V70.2344C66.2344 68.9821 67.3315 67.9688 68.6875 67.9688C70.0435 67.9688 71.1406 68.9821 71.1406 70.2344V111.016C71.1406 112.268 70.0435 113.281 68.6875 113.281Z" fill="#B4B6BC"/>
    <path d="M58.875 113.281C57.519 113.281 56.4219 112.268 56.4219 111.016V70.2344C56.4219 68.9821 57.519 67.9688 58.875 67.9688C60.231 67.9688 61.3281 68.9821 61.3281 70.2344V111.016C61.3281 112.268 60.231 113.281 58.875 113.281Z" fill="#B4B6BC"/>
    <path d="M98.125 113.281C96.769 113.281 95.6719 112.268 95.6719 111.016V70.2344C95.6719 68.9821 96.769 67.9688 98.125 67.9688C99.481 67.9688 100.578 68.9821 100.578 70.2344V111.016C100.578 112.268 99.481 113.281 98.125 113.281Z" fill="#B4B6BC"/>
    <path d="M88.3125 113.281C86.9565 113.281 85.8594 112.268 85.8594 111.016V70.2344C85.8594 68.9821 86.9565 67.9688 88.3125 67.9688C89.6685 67.9688 90.7656 68.9821 90.7656 70.2344V111.016C90.7656 112.268 89.6685 113.281 88.3125 113.281Z" fill="#B4B6BC"/>
    <path d="M107.938 113.281C106.582 113.281 105.484 112.268 105.484 111.016V70.2344C105.484 68.9821 106.582 67.9688 107.938 67.9688C109.293 67.9688 110.391 68.9821 110.391 70.2344V111.016C110.391 112.268 109.293 113.281 107.938 113.281Z" fill="#B4B6BC"/>
    <path d="M49.0625 113.281C47.7065 113.281 46.6094 112.268 46.6094 111.016V70.2344C46.6094 68.9821 47.7065 67.9688 49.0625 67.9688C50.4185 67.9688 51.5156 68.9821 51.5156 70.2344V111.016C51.5156 112.268 50.4185 113.281 49.0625 113.281Z" fill="#B4B6BC"/>
    <path d="M115.296 72.5001H41.7025C40.5765 72.5001 39.5968 71.7921 39.3235 70.7831C39.0503 69.7763 39.556 68.7253 40.5477 68.2343L77.3445 50.1093C78.0679 49.7552 78.9305 49.7552 79.6538 50.1093L116.451 68.2343C117.442 68.7253 117.948 69.7763 117.675 70.7831C117.402 71.7921 116.422 72.5001 115.296 72.5001ZM51.515 67.9689H105.484L78.4993 54.6782L51.515 67.9689Z" fill="#868491"/>
    <path d="M39.25 104.219C37.894 104.219 36.7969 103.205 36.7969 101.953V99.6875C36.7969 98.4352 37.894 97.4219 39.25 97.4219C40.606 97.4219 41.7031 98.4352 41.7031 99.6875V101.953C41.7031 103.205 40.606 104.219 39.25 104.219Z" fill="#5C546A"/>
    <path d="M31.8906 104.219C30.5347 104.219 29.4375 103.205 29.4375 101.953V99.6875C29.4375 98.4352 30.5347 97.4219 31.8906 97.4219C33.2466 97.4219 34.3438 98.4352 34.3438 99.6875V101.953C34.3438 103.205 33.2466 104.219 31.8906 104.219Z" fill="#5C546A"/>
    <path d="M24.5312 104.219C23.1753 104.219 22.0781 103.205 22.0781 101.953V99.6875C22.0781 98.4352 23.1753 97.4219 24.5312 97.4219C25.8872 97.4219 26.9844 98.4352 26.9844 99.6875V101.953C26.9844 103.205 25.8872 104.219 24.5312 104.219Z" fill="#5C546A"/>
    <path d="M17.1719 104.219C15.8159 104.219 14.7188 103.205 14.7188 101.953V99.6875C14.7188 98.4352 15.8159 97.4219 17.1719 97.4219C18.5278 97.4219 19.625 98.4352 19.625 99.6875V101.953C19.625 103.205 18.5278 104.219 17.1719 104.219Z" fill="#5C546A"/>
    <path d="M39.25 95.1562C37.894 95.1562 36.7969 94.1429 36.7969 92.8906V86.0938C36.7969 84.8414 37.894 83.8281 39.25 83.8281C40.606 83.8281 41.7031 84.8414 41.7031 86.0938V92.8906C41.7031 94.1429 40.606 95.1562 39.25 95.1562Z" fill="#5C546A"/>
    <path d="M31.8906 95.1562C30.5347 95.1562 29.4375 94.1429 29.4375 92.8906V86.0938C29.4375 84.8414 30.5347 83.8281 31.8906 83.8281C33.2466 83.8281 34.3438 84.8414 34.3438 86.0938V92.8906C34.3438 94.1429 33.2466 95.1562 31.8906 95.1562Z" fill="#5C546A"/>
    <path d="M24.5312 95.1562C23.1753 95.1562 22.0781 94.1429 22.0781 92.8906V86.0938C22.0781 84.8414 23.1753 83.8281 24.5312 83.8281C25.8872 83.8281 26.9844 84.8414 26.9844 86.0938V92.8906C26.9844 94.1429 25.8872 95.1562 24.5312 95.1562Z" fill="#5C546A"/>
    <path d="M17.1719 95.1562C15.8159 95.1562 14.7188 94.1429 14.7188 92.8906V86.0938C14.7188 84.8414 15.8159 83.8281 17.1719 83.8281C18.5278 83.8281 19.625 84.8414 19.625 86.0938V92.8906C19.625 94.1429 18.5278 95.1562 17.1719 95.1562Z" fill="#5C546A"/>
    <path d="M83.3383 65.7031H73.6602C72.3042 65.7031 71.207 64.6898 71.207 63.4375C71.207 62.1852 72.3042 61.1719 73.6602 61.1719H83.3383C84.6943 61.1719 85.7915 62.1852 85.7915 63.4375C85.7915 64.6898 84.6943 65.7031 83.3383 65.7031Z" fill="#868491"/>
    <path d="M154.547 113.281H2.45312C1.09716 113.281 0 112.268 0 111.016C0 109.763 1.09716 108.75 2.45312 108.75H154.547C155.903 108.75 157 109.763 157 111.016C157 112.268 155.903 113.281 154.547 113.281Z" fill="#5C546A"/>
</svg>
