<svg width="103" height="110" viewBox="0 0 103 110" fill="none" 
    xmlns="http://www.w3.org/2000/svg">
    <g clip-path="url(#clip0)">
        <path fill-rule="evenodd" clip-rule="evenodd" d="M52.6701 110H88.3176C91.1922 110 93.5449 107.478 93.5449 104.41V25.3281C93.5449 24.6248 93.5449 23.9786 93.5394 23.3894L73.7263 0H14.6824C11.8078 0 9.45508 2.51602 9.45508 5.59013V104.41C9.45508 107.484 11.8078 110 14.6824 110H52.6701Z" fill="#ECEFF1"/>
        <path fill-rule="evenodd" clip-rule="evenodd" d="M78.948 23.3886H93.5393C93.4686 18.7275 92.9696 17.2026 89.3909 13.0492L82.6029 5.15709C79.1476 1.14807 78.8365 0 73.7262 0L73.7207 17.7993C73.7144 20.8734 76.0672 23.3886 78.948 23.3886Z" fill="#90A4AE"/>
        <path fill-rule="evenodd" clip-rule="evenodd" d="M80.3327 82.9545C80.3327 75.6145 74.7651 69.6602 67.9064 69.6602C61.0422 69.6602 55.4746 75.6145 55.4746 82.9545C55.4746 90.2952 61.0422 96.2429 67.9064 96.2429C74.7651 96.2429 80.3327 90.2952 80.3327 82.9545Z" fill="#8BC34A"/>
        <path d="M70.0882 45.139H43.1013C42.2361 45.139 41.5352 44.3904 41.5352 43.4664C41.5352 42.5424 42.2361 41.793 43.1013 41.793H70.089C70.9534 41.793 71.6544 42.5424 71.6544 43.4664C71.6544 44.3904 70.9534 45.139 70.0882 45.139Z" fill="#35505C"/>
        <path d="M77.798 37.0952H43.1013C42.2361 37.0952 41.5352 36.3466 41.5352 35.4226C41.5352 34.4986 42.2361 33.75 43.1013 33.75H77.798C78.6624 33.75 79.3633 34.4986 79.3633 35.4226C79.3633 36.3466 78.6624 37.0952 77.798 37.0952Z" fill="#35505C"/>
        <path d="M26.8686 45.1378C26.4757 45.1378 26.0961 44.98 25.8061 44.6938L21.4582 40.4028C20.8232 39.7759 20.7839 38.7177 21.3709 38.0387C21.9572 37.3598 22.9481 37.3178 23.583 37.9447L26.7641 41.0843L34.1108 32.3403C34.6883 31.653 35.6777 31.5959 36.3213 32.2136C36.9649 32.8304 37.0183 33.8879 36.4407 34.576L28.0332 44.5822C27.7534 44.9154 27.3597 45.1151 26.9417 45.1361C26.9173 45.1378 26.8929 45.1378 26.8686 45.1378Z" fill="#8BC34A"/>
        <path d="M26.8674 61.232C26.8619 61.232 26.8572 61.232 26.8525 61.232C26.403 61.2269 25.9771 61.0163 25.6832 60.6529L22.2098 56.3619C21.644 55.6628 21.7155 54.6062 22.3693 54.002C23.0239 53.3977 24.0125 53.4741 24.5783 54.1732L26.8886 57.0282L34.1088 48.4345C34.6864 47.7463 35.6765 47.6901 36.3201 48.3069C36.9629 48.9238 37.0164 49.982 36.4388 50.6694L28.032 60.6764C27.735 61.0297 27.3114 61.232 26.8674 61.232Z" fill="#8BC34A"/>
        <path d="M70.0882 61.2327H43.1013C42.2361 61.2327 41.5352 60.4833 41.5352 59.5593C41.5352 58.6353 42.2361 57.8867 43.1013 57.8867H70.089C70.9534 57.8867 71.6544 58.6353 71.6544 59.5593C71.6544 60.4833 70.9534 61.2327 70.0882 61.2327Z" fill="#35505C"/>
        <path d="M77.798 53.1898H64.2864C63.422 53.1898 62.7203 52.4403 62.7203 51.5163C62.7203 50.5923 63.4212 49.8438 64.2864 49.8438H77.798C78.6624 49.8438 79.3633 50.5923 79.3633 51.5163C79.3633 52.4403 78.6624 53.1898 77.798 53.1898ZM57.1173 53.1898H43.1013C42.2361 53.1898 41.5352 52.4403 41.5352 51.5163C41.5352 50.5923 42.2361 49.8438 43.1013 49.8438H57.1173C57.9817 49.8438 58.6827 50.5923 58.6827 51.5163C58.6827 52.4403 57.9817 53.1898 57.1173 53.1898Z" fill="#35505C"/>
        <path fill-rule="evenodd" clip-rule="evenodd" d="M86.253 25.3293V104.411C86.253 107.473 83.9065 109.989 81.043 110.001H88.3182C91.1927 110.001 93.5455 107.479 93.5455 104.411V25.3293C93.5455 24.626 93.5455 23.9798 93.54 23.3906H86.2412C86.253 23.9798 86.253 24.626 86.253 25.3293Z" fill="#C4CCCF"/>
        <path fill-rule="evenodd" clip-rule="evenodd" d="M64.709 70.1058C70.0251 71.6114 73.944 76.7936 73.944 82.9545C73.944 89.1094 70.0251 94.2917 64.709 95.7972C65.7298 96.0859 66.7977 96.2429 67.9065 96.2429C74.7652 96.2429 80.3328 90.2952 80.3328 82.9545C80.3328 75.6145 74.7652 69.6602 67.9065 69.6602C66.7977 69.6602 65.7298 69.8171 64.709 70.1058Z" fill="#689F38"/>
        <path fill-rule="evenodd" clip-rule="evenodd" d="M69.4783 85.513H65.7173L65.3071 86.693C65.1719 87.0815 64.9786 87.6153 64.7492 87.9409C64.5087 88.2858 64.1394 88.405 63.752 88.405C63.3763 88.405 63.0424 88.2548 62.772 87.9787C62.5025 87.7026 62.3438 87.3577 62.3438 86.9624C62.3438 86.7551 62.3736 86.5545 62.4318 86.3598C62.5025 86.1156 62.5905 85.8772 62.6785 85.6389L65.3833 78.2981C65.4768 78.0472 65.5704 77.7963 65.6592 77.5395C65.7645 77.2566 65.8878 76.9747 66.0458 76.7237C66.2045 76.4728 66.4159 76.2722 66.6619 76.1212C66.944 75.9458 67.2662 75.8828 67.5891 75.8828C67.9176 75.8828 68.2461 75.9458 68.5337 76.1212C68.7742 76.2655 68.9793 76.4661 69.138 76.7111C69.2787 76.9243 69.3958 77.1626 69.4901 77.401C69.6017 77.6964 69.7125 77.991 69.8123 78.2797L72.576 85.576C72.7222 85.9586 72.9281 86.5235 72.9281 86.9439C72.9281 87.3392 72.7693 87.6841 72.5116 87.9602C72.2357 88.2548 71.8837 88.4059 71.4963 88.4059C71.2849 88.4059 71.0743 88.3681 70.8865 88.2674C70.716 88.1734 70.5753 88.0483 70.4519 87.8914C70.3293 87.7219 70.2295 87.4961 70.1407 87.2955C70.059 87.095 69.9765 86.8877 69.8948 86.6804V86.6745L69.4783 85.513ZM66.5629 82.9659H68.6162L67.5829 79.9355L66.5629 82.9659Z" fill="#ECEFF1"/>
    </g>
    <defs>
        <clipPath id="clip0">
            <rect width="103" height="110" fill="white"/>
        </clipPath>
    </defs>
</svg>
