<svg width="112" height="95" viewBox="0 0 112 95" fill="none" 
    xmlns="http://www.w3.org/2000/svg">
    <path d="M106.618 89.5889H23.2847C14.3254 89.5889 7.0625 83.4563 7.0625 75.8911V73.2642C7.0625 65.6991 14.3254 59.5664 23.2847 59.5664H106.618V89.5889Z" fill="#FFEBB7"/>
    <path d="M19.5061 62.5664H10.6172V86.5844H19.5061V62.5664Z" fill="#5C546A"/>
    <path d="M98.1745 55.0626H3.50781V34.0469H98.1745C100.874 34.0469 103.063 35.8951 103.063 38.175V50.9345C103.063 53.2144 100.874 55.0626 98.1745 55.0626Z" fill="#FFEBB7"/>
    <path d="M106.618 7.02734H15.9512V29.5442H106.618V7.02734Z" fill="#FFEBB7"/>
    <path d="M106.668 92.5934H24.89C13.1269 92.5934 3.55664 84.5132 3.55664 74.5799C3.55664 64.6466 13.1269 56.5664 24.89 56.5664H106.668C108.631 56.5664 110.223 57.9107 110.223 59.5687C110.223 61.2266 108.631 62.5709 106.668 62.5709H24.89C17.048 62.5709 10.6678 67.9583 10.6678 74.5799C10.6678 81.2016 17.048 86.5889 24.89 86.5889H106.668C108.631 86.5889 110.223 87.9332 110.223 89.5912C110.223 91.2492 108.631 92.5934 106.668 92.5934Z" fill="#00C37A"/>
    <path d="M96 56.5649H1.77778C0.795111 56.5649 0 55.8935 0 55.0638C0 54.234 0.795111 53.5626 1.77778 53.5626H96C98.9409 53.5626 101.333 51.5425 101.333 49.0593V40.0525C101.333 37.5693 98.9409 35.5491 96 35.5491H1.77778C0.795111 35.5491 0 34.8777 0 34.048C0 33.2183 0.795111 32.5469 1.77778 32.5469H96C100.901 32.5469 104.889 35.9141 104.889 40.0525V49.0593C104.889 53.1977 100.901 56.5649 96 56.5649Z" fill="#009BCA"/>
    <path d="M106.618 14.5335H24.8403C23.8585 14.5335 23.0625 13.8614 23.0625 13.0324C23.0625 12.2034 23.8585 11.5312 24.8403 11.5312H106.618V14.5335Z" fill="#E6BE94"/>
    <path d="M106.618 20.5374H24.8403C23.8585 20.5374 23.0625 19.8653 23.0625 19.0363C23.0625 18.2073 23.8585 17.5352 24.8403 17.5352H106.618V20.5374Z" fill="#E6BE94"/>
    <path d="M106.618 26.5413H24.8403C23.8585 26.5413 23.0625 25.8692 23.0625 25.0402C23.0625 24.2112 23.8585 23.5391 24.8403 23.5391H106.618V26.5413Z" fill="#E6BE94"/>
    <path d="M3.50781 38.5508H95.9523C96.934 38.5508 97.73 39.2229 97.73 40.0519C97.73 40.8809 96.934 41.553 95.9523 41.553H3.50781C3.50781 41.553 3.50781 38.5508 3.50781 38.5508Z" fill="#E6BE94"/>
    <path d="M3.50781 44.5547H95.9523C96.934 44.5547 97.73 45.2268 97.73 46.0558C97.73 46.8848 96.934 47.5569 95.9523 47.5569H3.50781C3.50781 47.5569 3.50781 44.5547 3.50781 44.5547Z" fill="#E6BE94"/>
    <path d="M3.50781 50.5586H95.9523C96.934 50.5586 97.73 51.2307 97.73 52.0597C97.73 52.8887 96.934 53.5608 95.9523 53.5608H3.50781C3.50781 53.5608 3.50781 50.5586 3.50781 50.5586Z" fill="#E6BE94"/>
    <path d="M108.445 32.546H23.112C17.23 32.546 12.4453 28.5059 12.4453 23.5392V11.5302C12.4453 6.56353 17.23 2.52344 23.112 2.52344H108.445C110.409 2.52344 112.001 3.8677 112.001 5.52569C112.001 7.18368 110.409 8.52794 108.445 8.52794H23.112C21.1511 8.52794 19.5564 9.87445 19.5564 11.5302V23.5392C19.5564 25.1942 21.1511 26.5415 23.112 26.5415H108.445C110.409 26.5415 112.001 27.8857 112.001 29.5437C112.001 31.2017 110.409 32.546 108.445 32.546Z" fill="#FF4F19"/>
    <path d="M24.8403 83.5859C23.8576 83.5859 23.0625 84.2573 23.0625 85.0871C23.0625 85.9168 23.8576 86.5882 24.8403 86.5882H106.618V83.5859H24.8403Z" fill="#E6BE94"/>
    <path d="M24.8403 77.5781C23.8576 77.5781 23.0625 78.2495 23.0625 79.0793C23.0625 79.909 23.8576 80.5804 24.8403 80.5804H106.618V77.5781H24.8403Z" fill="#E6BE94"/>
    <path d="M24.8403 71.5742C23.8576 71.5742 23.0625 72.2456 23.0625 73.0753C23.0625 73.9051 23.8576 74.5765 24.8403 74.5765H106.618V71.5742H24.8403Z" fill="#E6BE94"/>
    <path d="M24.8403 65.5703C23.8576 65.5703 23.0625 66.2417 23.0625 67.0714C23.0625 67.9012 23.8576 68.5726 24.8403 68.5726H106.618V65.5703H24.8403Z" fill="#E6BE94"/>
</svg>
