<svg width="20" height="20" viewBox="0 0 20 20" fill="none" xmlns="http://www.w3.org/2000/svg">
<path fill-rule="evenodd" clip-rule="evenodd" d="M19.7639 0.848492C19.6716 0.62291 19.4925 0.443856 19.2669 0.351523C19.1603 0.292197 19.0428 0.255087 18.9215 0.242432H15.2851C14.7831 0.242432 14.376 0.649446 14.376 1.15152C14.376 1.6536 14.7831 2.06061 15.2851 2.06061H16.7276L12.8245 5.96364C12.5813 6.19027 12.4812 6.53159 12.5635 6.85369C12.6457 7.17579 12.8972 7.42731 13.2193 7.50957C13.5414 7.59183 13.8827 7.49171 14.1094 7.24849L18.0124 3.34546V4.78789C18.0124 5.28996 18.4194 5.69698 18.9215 5.69698C19.4236 5.69698 19.8306 5.28996 19.8306 4.78789V1.15152C19.826 1.04742 19.8035 0.9449 19.7639 0.848492Z" fill="#4DD5D1"/>
<path fill-rule="evenodd" clip-rule="evenodd" d="M6.46077 12.3273L2.25471 16.5333V15.0909C2.25471 14.5888 1.84769 14.1818 1.34561 14.1818C0.843537 14.1818 0.436523 14.5888 0.436523 15.0909V18.7273C0.436523 19.2294 0.843537 19.6364 1.34561 19.6364H4.98198C5.48406 19.6364 5.89107 19.2294 5.89107 18.7273C5.89107 18.2252 5.48406 17.8182 4.98198 17.8182H3.53955L7.74561 13.6121C8.07938 13.2539 8.06953 12.6957 7.72334 12.3495C7.37714 12.0034 6.81896 11.9935 6.46077 12.3273Z" fill="#4DD5D1"/>
<path fill-rule="evenodd" clip-rule="evenodd" d="M18.921 14.1818C18.419 14.1818 18.0119 14.5888 18.0119 15.0909V16.2303L14.1089 12.3273C13.7507 11.9935 13.1925 12.0034 12.8463 12.3495C12.5001 12.6957 12.4903 13.2539 12.8241 13.6121L17.0301 17.8182H15.2847C14.7826 17.8182 14.3756 18.2252 14.3756 18.7273C14.3756 19.2294 14.7826 19.6364 15.2847 19.6364H18.921C19.4231 19.6364 19.8301 19.2294 19.8301 18.7273V15.0909C19.8301 14.5888 19.4231 14.1818 18.921 14.1818Z" fill="#4DD5D1"/>
<path fill-rule="evenodd" clip-rule="evenodd" d="M3.84258 2.06061H4.98198C5.48406 2.06061 5.89107 1.6536 5.89107 1.15152C5.89107 0.649446 5.48406 0.242432 4.98198 0.242432H1.34561C0.843537 0.242432 0.436523 0.649446 0.436523 1.15152V4.78789C0.436523 5.28996 0.843537 5.69698 1.34561 5.69698C1.84769 5.69698 2.25471 5.28996 2.25471 4.78789V3.04243L6.46077 7.24849C6.81896 7.58226 7.37714 7.57241 7.72334 7.22622C8.06953 6.88002 8.07938 6.32184 7.74561 5.96364L3.84258 2.06061Z" fill="#4DD5D1"/>
</svg>
