<svg width="21" height="19" viewBox="0 0 21 19" fill="none" xmlns="http://www.w3.org/2000/svg">
<path fill-rule="evenodd" clip-rule="evenodd" d="M14.7993 1.43372C16.0732 1.40745 17.3028 1.90195 18.2038 2.80295C19.1048 3.70396 19.5993 4.9335 19.573 6.20745C19.5437 6.86954 19.3814 7.51894 19.0957 8.11694C18.2459 9.82593 10.5029 16.7096 10.5029 16.7096C10.5029 16.7096 2.76951 9.82116 1.91024 8.11694C1.60418 7.52646 1.44069 6.87249 1.43287 6.20745C1.41066 4.9347 1.90647 3.70754 2.80658 2.80743C3.70668 1.90732 4.93385 1.41151 6.20659 1.43372C7.49073 1.43372 9.64368 3.4721 10.5029 4.29796C11.3622 3.47688 13.5152 1.43372 14.7993 1.43372ZM14.7993 0.00160234C13.6679 0.00160234 12.3504 0.712888 10.5029 2.3455C8.65552 0.712888 7.33797 0.00160234 6.20659 0.00160234C4.08341 -0.0471136 2.0893 1.01783 0.948923 2.80943C-0.191451 4.60103 -0.312077 6.85847 0.630882 8.76139C1.54266 10.5706 7.68645 16.1225 9.5482 17.779C10.0918 18.2652 10.9141 18.2652 11.4577 17.779C13.3242 16.1225 19.4776 10.5706 20.3798 8.75184C21.3126 6.84857 21.1864 4.59676 20.0467 2.80967C18.907 1.02257 16.9185 -0.0415543 14.7993 0.00160234Z" fill="#414140"/>
</svg>
