<svg width="21" height="20" viewBox="0 0 21 20" fill="none" xmlns="http://www.w3.org/2000/svg">
<path fill-rule="evenodd" clip-rule="evenodd" d="M17.2922 18.4188H1.9076V1.74359H10.6256V0.205124H1.9076C1.05793 0.205124 0.369141 0.893917 0.369141 1.74359V18.4188C0.369141 19.2685 1.05793 19.9573 1.9076 19.9573H17.2922C18.1419 19.9573 18.8307 19.2685 18.8307 18.4188V11.4872H17.2922V18.4188Z" fill="#808182"/>
<path fill-rule="evenodd" clip-rule="evenodd" d="M19.9182 2.12308L18.831 1.0359C18.2304 0.435992 17.2573 0.435992 16.6567 1.0359C16.6567 1.0359 8.10795 9.57436 7.97975 10.0923L7.59513 11.6308C7.46347 12.1554 7.61699 12.7106 7.99947 13.0931C8.38194 13.4756 8.93717 13.6291 9.4618 13.4974L11.0003 13.1128C11.5131 12.9795 19.9182 4.30256 19.9182 4.30256C20.5181 3.70191 20.5181 2.72886 19.9182 2.1282V2.12308ZM11.6105 10.4308L10.5592 9.37949L10.5233 9.34872L17.7439 2.1282L18.831 3.21538L11.6105 10.4308Z" fill="#808182"/>
</svg>
