<svg width="25" height="25" viewBox="0 0 25 25" fill="none" xmlns="http://www.w3.org/2000/svg">
<path fill-rule="evenodd" clip-rule="evenodd" d="M5.65117 0.232559H2.1628C1.19951 0.232559 0.41861 1.01346 0.41861 1.97675V5.46512C0.41861 6.4284 1.19951 7.2093 2.1628 7.2093H5.65117C6.61446 7.2093 7.39535 6.4284 7.39535 5.46512V1.97675C7.39535 1.01346 6.61446 0.232559 5.65117 0.232559ZM5.65117 5.46512H2.1628V1.97675H5.65117V5.46512Z" fill="#000000"/>
<path fill-rule="evenodd" clip-rule="evenodd" d="M14.3721 0.232559H10.8837C9.92043 0.232559 9.13953 1.01346 9.13953 1.97675V5.46512C9.13953 6.4284 9.92043 7.2093 10.8837 7.2093H14.3721C15.3354 7.2093 16.1163 6.4284 16.1163 5.46512V1.97675C16.1163 1.01346 15.3354 0.232559 14.3721 0.232559ZM14.3721 5.46512H10.8837V1.97675H14.3721V5.46512Z" fill="#000000"/>
<path fill-rule="evenodd" clip-rule="evenodd" d="M23.093 0.232559H19.6047C18.6414 0.232559 17.8605 1.01346 17.8605 1.97675V5.46512C17.8605 6.4284 18.6414 7.2093 19.6047 7.2093H23.093C24.0563 7.2093 24.8372 6.4284 24.8372 5.46512V1.97675C24.8372 1.01346 24.0563 0.232559 23.093 0.232559ZM23.093 5.46512H19.6047V1.97675H23.093V5.46512Z" fill="#000000"/>
<path fill-rule="evenodd" clip-rule="evenodd" d="M5.65117 8.95349H2.1628C1.19951 8.95349 0.41861 9.73439 0.41861 10.6977V14.186C0.41861 15.1493 1.19951 15.9302 2.1628 15.9302H5.65117C6.61446 15.9302 7.39535 15.1493 7.39535 14.186V10.6977C7.39535 9.73439 6.61446 8.95349 5.65117 8.95349ZM5.65117 14.186H2.1628V10.6977H5.65117V14.186Z" fill="#000000"/>
<path fill-rule="evenodd" clip-rule="evenodd" d="M14.3721 8.95349H10.8837C9.92043 8.95349 9.13953 9.73439 9.13953 10.6977V14.186C9.13953 15.1493 9.92043 15.9302 10.8837 15.9302H14.3721C15.3354 15.9302 16.1163 15.1493 16.1163 14.186V10.6977C16.1163 9.73439 15.3354 8.95349 14.3721 8.95349ZM14.3721 14.186H10.8837V10.6977H14.3721V14.186Z" fill="#000000"/>
<path fill-rule="evenodd" clip-rule="evenodd" d="M23.093 8.95349H19.6047C18.6414 8.95349 17.8605 9.73439 17.8605 10.6977V14.186C17.8605 15.1493 18.6414 15.9302 19.6047 15.9302H23.093C24.0563 15.9302 24.8372 15.1493 24.8372 14.186V10.6977C24.8372 9.73439 24.0563 8.95349 23.093 8.95349ZM23.093 14.186H19.6047V10.6977H23.093V14.186Z" fill="#000000"/>
<path fill-rule="evenodd" clip-rule="evenodd" d="M5.65117 17.6744H2.1628C1.19951 17.6744 0.41861 18.4553 0.41861 19.4186V22.907C0.41861 23.8703 1.19951 24.6512 2.1628 24.6512H5.65117C6.61446 24.6512 7.39535 23.8703 7.39535 22.907V19.4186C7.39535 18.4553 6.61446 17.6744 5.65117 17.6744ZM5.65117 22.907H2.1628V19.4186H5.65117V22.907Z" fill="#000000"/>
<path fill-rule="evenodd" clip-rule="evenodd" d="M23.093 17.6744H19.6047C18.6414 17.6744 17.8605 18.4553 17.8605 19.4186V22.907C17.8605 23.8703 18.6414 24.6512 19.6047 24.6512H23.093C24.0563 24.6512 24.8372 23.8703 24.8372 22.907V19.4186C24.8372 18.4553 24.0563 17.6744 23.093 17.6744ZM23.093 22.907H19.6047V19.4186H23.093V22.907Z" fill="#000000"/>
<path fill-rule="evenodd" clip-rule="evenodd" d="M14.3721 17.6744H10.8837C9.92043 17.6744 9.13953 18.4553 9.13953 19.4186V22.907C9.13953 23.8703 9.92043 24.6512 10.8837 24.6512H14.3721C15.3354 24.6512 16.1163 23.8703 16.1163 22.907V19.4186C16.1163 18.4553 15.3354 17.6744 14.3721 17.6744ZM14.3721 22.907H10.8837V19.4186H14.3721V22.907Z" fill="#000000"/>
</svg>
