<?xml version="1.0" encoding="UTF-8"?>
<svg width="23px" height="20px" viewBox="0 0 23 20" version="1.1" xmlns="http://www.w3.org/2000/svg" xmlns:xlink="http://www.w3.org/1999/xlink">
    <!-- Generator: Sketch 52.5 (67469) - http://www.bohemiancoding.com/sketch -->
    <title>Dialog</title>
    <desc>Created with Sketch.</desc>
    <g id="Symbols" stroke="none" stroke-width="1" fill="none" fill-rule="evenodd">
        <g id="Menú/Lateral-Dashboard-Crear-Proyecto" transform="translate(-40.000000, -320.000000)" fill="#414140">
            <g id="Menú-Lateral">
                <g id="Chats" transform="translate(0.000000, 300.000000)">
                    <g id="Dialog" transform="translate(40.000000, 20.000000)">
                        <path d="M20.86,6.2 L16.36,6.2 L16.36,1.7 C16.36,0.871572875 15.6884271,0.2 14.86,0.2 L1.86,0.2 C1.03157288,0.2 0.36,0.871572875 0.36,1.7 L0.36,9.7 C0.36,10.5284271 1.03157288,11.2 1.86,11.2 L2.145,11.2 L1.97,11.645 C1.73367333,12.2342014 1.89384628,12.9083708 2.36993103,13.3283135 C2.84601577,13.7482562 3.53490585,13.8230244 4.09,13.515 L6.36,12.255 L6.36,15.705 C6.36,16.5334271 7.03157288,17.205 7.86,17.205 L14.47,17.205 L18.63,19.515 C19.1850942,19.8230244 19.8739842,19.7482562 20.350069,19.3283135 C20.8261537,18.9083708 20.9863267,18.2342014 20.75,17.645 L20.575,17.2 L20.86,17.2 C21.6884271,17.2 22.36,16.5284271 22.36,15.7 L22.36,7.7 C22.36,6.87157288 21.6884271,6.2 20.86,6.2 Z M6.36,7.7 L6.36,10.535 L3.36,12.2 L4.36,9.7 L1.86,9.7 L1.86,1.7 L14.86,1.7 L14.86,6.2 L7.86,6.2 C7.03157288,6.2 6.36,6.87157288 6.36,7.7 Z M20.86,15.7 L18.36,15.7 L19.36,18.2 L14.86,15.7 L7.86,15.7 L7.86,7.7 L20.86,7.7 L20.86,15.7 Z" id="Shape"></path>
                        <path d="M9.86,10.7 L18.86,10.7 C19.2742136,10.7 19.61,10.3642136 19.61,9.95 C19.61,9.53578644 19.2742136,9.2 18.86,9.2 L9.86,9.2 C9.44578644,9.2 9.11,9.53578644 9.11,9.95 C9.11,10.3642136 9.44578644,10.7 9.86,10.7 L9.86,10.7 Z" id="Shape"></path>
                        <path d="M9.86,13.7 L18.86,13.7 C19.2742136,13.7 19.61,13.3642136 19.61,12.95 C19.61,12.5357864 19.2742136,12.2 18.86,12.2 L9.86,12.2 C9.44578644,12.2 9.11,12.5357864 9.11,12.95 C9.11,13.3642136 9.44578644,13.7 9.86,13.7 L9.86,13.7 Z" id="Shape"></path>
                    </g>
                </g>
            </g>
        </g>
    </g>
</svg>