<svg width="24" height="26" viewBox="0 0 24 26" fill="none" xmlns="http://www.w3.org/2000/svg">
<path fill-rule="evenodd" clip-rule="evenodd" d="M22.3844 11.0613L3.53387 0.723893C2.96884 0.414738 2.28267 0.426443 1.72852 0.754691C1.17436 1.08294 0.834372 1.67908 0.833984 2.32315V22.9979C0.834372 23.642 1.17436 24.2382 1.72852 24.5664C2.28267 24.8946 2.96884 24.9064 3.53387 24.5972L22.3844 14.2598C22.9682 13.9394 23.331 13.3264 23.331 12.6605C23.331 11.9946 22.9682 11.3817 22.3844 11.0613ZM2.65823 22.9979V13.8767H10.5633C11.067 13.8767 11.4754 13.4683 11.4754 12.9646C11.4754 12.4608 11.067 12.0525 10.5633 12.0525H2.65823V2.32315L21.5088 12.6605L2.65823 22.9979Z" fill="white"/>
</svg>
