<svg width="29" height="29" viewBox="0 0 29 29" fill="none" xmlns="http://www.w3.org/2000/svg">
<path fill-rule="evenodd" clip-rule="evenodd" d="M14.5 28C21.9558 28 28 21.9558 28 14.5C28 7.04416 21.9558 1 14.5 1C7.04416 1 1 7.04416 1 14.5C1 21.9558 7.04416 28 14.5 28Z" fill="#FAFAFA" stroke="#D8D8D8"/>
<path fill-rule="evenodd" clip-rule="evenodd" d="M7.35352 9.56289C7.35352 9.90615 7.75317 10.1844 8.24625 10.1844H20.7549C21.248 10.1844 21.6476 9.90615 21.6476 9.56289C21.6476 9.21963 21.248 8.94141 20.7549 8.94141H8.24625C7.75317 8.94141 7.35352 9.21963 7.35352 9.56289Z" fill="#808182"/>
<path fill-rule="evenodd" clip-rule="evenodd" d="M8.24138 20.7493H20.7546C21.2478 20.7493 21.6476 20.4703 21.6476 20.1296C21.6476 19.789 21.2478 19.5063 20.7546 19.5063H8.24138C7.74812 19.5063 7.35352 19.7854 7.35352 20.1296C7.35352 20.4739 7.74812 20.7493 8.24138 20.7493Z" fill="#808182"/>
<path fill-rule="evenodd" clip-rule="evenodd" d="M8.24138 15.1561H20.7546C21.2478 15.1561 21.6476 14.877 21.6476 14.5364C21.6476 14.1957 21.2478 13.9131 20.7546 13.9131H8.24138C7.74812 13.9131 7.35352 14.1921 7.35352 14.5364C7.35352 14.8806 7.74812 15.1561 8.24138 15.1561Z" fill="#808182"/>
</svg>
