<svg width="75" height="30" viewBox="0 0 75 30" fill="none" xmlns="http://www.w3.org/2000/svg">
<path fill-rule="evenodd" clip-rule="evenodd" d="M1.07272 7.51171L9.56372 6.29927C11.112 5.34823 12.7187 4.49687 14.3753 3.74977C19.8461 1.27198 25.7838 -0.00658609 31.7902 2.55116e-05H33.2652C40.3534 0.00511122 47.3282 1.78361 53.5538 5.17327L57.839 7.5107C62.855 7.56715 67.7745 8.90115 72.1324 11.385C73.9034 12.4007 74.9969 14.2849 75 16.3259V23.7475C75 24.4382 74.4405 24.9976 73.7498 24.9976H69.5526C68.1875 28.8918 63.9236 30.9424 60.0291 29.5774C57.8852 28.8262 56.2002 27.1408 55.4489 24.9976H22.0525C20.6874 28.8918 16.4236 30.9424 12.529 29.5774C10.3857 28.8262 8.70008 27.1408 7.94884 24.9976H7.50023C7.34103 24.9976 7.18336 24.9676 7.03535 24.9086L2.98668 23.2842C1.178 22.5681 -0.00658417 20.8176 3.05176e-05 18.8733V8.74908C3.05176e-05 8.1276 0.457283 7.60021 1.07272 7.51171ZM57.6014 23.4978C58.1543 26.2029 60.7956 27.9479 63.501 27.3951C66.2069 26.8422 67.952 24.2012 67.3991 21.4956C66.8457 18.7904 64.2044 17.0455 61.499 17.5983C59.171 18.0738 57.4997 20.1219 57.5002 22.498C57.5002 22.8336 57.5343 23.1688 57.6014 23.4978ZM55.0003 22.498H35.0001V9.99917H57.5002C62.1969 10.0007 66.8121 11.2264 70.8913 13.5551C71.8852 14.1237 72.4986 15.1811 72.5001 16.3259V22.498H70.0002C70.0002 18.3561 66.6423 14.9985 62.5 14.9985C58.3578 14.9985 55.0003 18.3561 55.0003 22.498ZM35.0001 7.49951H52.5976L52.3565 7.36779C47.0123 4.46381 41.0762 2.81754 35.0001 2.55461V7.49951ZM31.7927 2.49968H32.5002V7.49951H19.2673L17.0848 5.3172C21.7636 3.45021 26.7553 2.49409 31.7927 2.49968ZM10.1013 23.4978C10.6542 26.2029 13.2955 27.9479 16.0014 27.3951C18.7068 26.8422 20.4519 24.2012 19.899 21.4956C19.3461 18.7904 16.7043 17.0455 13.9989 17.5983C11.671 18.0738 9.99962 20.1219 10.0001 22.498C10.0001 22.8336 10.0342 23.1688 10.1013 23.4978ZM6.25002 11.2487H2.49992V9.83235L10.1776 8.73637C10.3501 8.71145 10.5149 8.65093 10.6624 8.55888C11.9416 7.76244 13.2645 7.03874 14.6251 6.39132L17.8665 9.63248C18.1005 9.86694 18.4184 9.99866 18.75 9.99866H32.4997V22.4964H22.4961C22.492 18.3561 19.1366 15.001 14.9958 14.997C14.7334 14.997 14.4837 15.0107 14.2334 15.0356C14.1794 15.0407 14.1267 15.0497 14.0738 15.0588C14.0361 15.0652 13.9983 15.0717 13.9598 15.0768C13.9158 15.0833 13.8717 15.0893 13.8276 15.0953C13.7151 15.1106 13.6027 15.1259 13.4924 15.1485C13.4376 15.1598 13.3845 15.1744 13.3314 15.189C13.2912 15.2 13.251 15.2111 13.2101 15.2207C13.1716 15.2303 13.133 15.2395 13.0946 15.2487C12.9876 15.2744 12.8809 15.2999 12.7762 15.3321C12.7093 15.3532 12.6523 15.375 12.588 15.3994C12.5502 15.4139 12.5098 15.4292 12.4634 15.446C12.4292 15.4583 12.3935 15.4708 12.3575 15.4834C12.2625 15.5166 12.1656 15.5505 12.0885 15.5833C12.0184 15.6129 11.9554 15.6442 11.8876 15.6778C11.8526 15.6952 11.8164 15.7132 11.7773 15.7319C11.744 15.7477 11.7099 15.7637 11.6756 15.7798C11.5914 15.8192 11.5069 15.8588 11.435 15.8971C11.3337 15.9505 11.2463 16.0055 11.1384 16.0756C11.085 16.1106 11.0302 16.1427 10.9764 16.1742C10.9221 16.206 10.8688 16.2373 10.8185 16.2704C10.7466 16.3185 10.6771 16.3715 10.6083 16.4241C10.5817 16.4444 10.5551 16.4647 10.5286 16.4845C10.4966 16.5086 10.4643 16.5317 10.432 16.5549C10.3688 16.6002 10.3053 16.6457 10.2427 16.6992C10.1861 16.7476 10.1304 16.7996 10.0764 16.8501C10.0396 16.8844 10.0036 16.9181 9.96859 16.9494C9.94288 16.9725 9.91726 16.9949 9.89166 17.0173C9.83168 17.0697 9.77183 17.122 9.71123 17.1833C9.66756 17.2278 9.62377 17.2771 9.58111 17.3251C9.53979 17.3716 9.49953 17.4169 9.46149 17.4554L9.45448 17.4625C9.37917 17.5388 9.3065 17.6124 9.22905 17.7056C9.16505 17.7827 9.10235 17.8679 9.04462 17.9463C9.03033 17.9658 9.01633 17.9848 9.00271 18.0032C8.97764 18.037 8.9529 18.0692 8.92812 18.1015C8.88501 18.1577 8.84174 18.2141 8.7962 18.2793C8.725 18.3815 8.65633 18.4955 8.60039 18.5956C8.5742 18.6419 8.54592 18.6864 8.51724 18.7315C8.48411 18.7837 8.45043 18.8367 8.41881 18.8942C8.38007 18.9653 8.34445 19.0403 8.30959 19.1138C8.29182 19.1513 8.27425 19.1884 8.25655 19.2243C8.24093 19.256 8.22472 19.2873 8.20849 19.3187C8.17033 19.3924 8.13212 19.4663 8.10143 19.5452C8.0774 19.6072 8.05492 19.6705 8.03245 19.7339C8.014 19.7859 7.99557 19.8378 7.9763 19.889C7.9641 19.9219 7.95165 19.9546 7.93922 19.9872C7.90861 20.0676 7.87809 20.1478 7.85168 20.2302C7.82799 20.3035 7.80933 20.3783 7.79064 20.4531C7.77964 20.4972 7.76863 20.5413 7.75658 20.5852C7.75003 20.6091 7.74332 20.6334 7.73656 20.6577C7.70976 20.7545 7.68239 20.8533 7.66248 20.9443C7.64552 21.0214 7.63327 21.104 7.62077 21.1884C7.61489 21.228 7.60896 21.2679 7.60246 21.3079C7.59669 21.3441 7.5905 21.3804 7.5843 21.4167C7.56917 21.5052 7.554 21.594 7.54498 21.6827C7.53733 21.7612 7.53348 21.8434 7.52979 21.9222C7.52759 21.969 7.52545 22.0147 7.52261 22.0575C7.52011 22.0951 7.51685 22.1326 7.5136 22.17C7.50691 22.2471 7.50023 22.324 7.50023 22.4013L3.91492 20.9616C3.0584 20.6233 2.49687 19.7944 2.49992 18.8733V13.7489H6.25002V11.2487Z" fill="#414140"/>
</svg>
