<?xml version="1.0" encoding="UTF-8"?>
<svg width="18px" height="21px" viewBox="0 0 18 21" version="1.1" xmlns="http://www.w3.org/2000/svg" xmlns:xlink="http://www.w3.org/1999/xlink">
    <!-- Generator: Sketch 52.5 (67469) - http://www.bohemiancoding.com/sketch -->
    <title>Shape</title>
    <desc>Created with Sketch.</desc>
    <g id="Symbols" stroke="none" stroke-width="1" fill="none" fill-rule="evenodd">
        <g id="Menú/Header-Dashboard" transform="translate(-1222.000000, -31.000000)" fill="#414140">
            <g id="Group-3" transform="translate(1222.000000, 18.000000)">
                <g id="Notification" transform="translate(0.000000, 13.000000)">
                    <path d="M17.1013043,15.9554348 C16.9141304,15.7819565 15.393913,14.2252174 15.393913,9.31304348 C15.3582144,7.63374972 14.7383085,6.01941157 13.6408696,4.74782609 C13.0518796,4.04373343 12.3227009,3.47002995 11.4997826,3.06326087 C11.503488,3.02225745 11.503488,2.98100342 11.4997826,2.94 C11.4997826,1.55328503 10.375628,0.429130435 8.98891304,0.429130435 C7.60219807,0.429130435 6.47804348,1.55328503 6.47804348,2.94 C6.47433813,2.98100342 6.47433813,3.02225745 6.47804348,3.06326087 C5.65512516,3.47002995 4.92594649,4.04373343 4.33695652,4.74782609 C3.23951756,6.01941157 2.61961171,7.63374972 2.58391304,9.31304348 C2.58391304,14.216087 1.06826087,15.7682609 0.881086957,15.9417391 C0.367471777,16.2489909 0.128526067,16.8661105 0.301304348,17.4391304 C0.483594788,18.0394112 1.04369433,18.4445499 1.67086957,18.4297826 L6.13565217,18.4297826 C5.88405483,18.6927779 5.88405483,19.1072221 6.13565217,19.3702174 C6.87213367,20.1265638 7.88301347,20.5531851 8.93869565,20.5531851 C9.99437783,20.5531851 11.0052576,20.1265638 11.7417391,19.3702174 C11.9763418,19.1110797 11.9763418,18.7163116 11.7417391,18.4571739 L16.2658696,18.4571739 C16.8930448,18.4719412 17.4531443,18.0668025 17.6354348,17.4665217 C17.8221424,16.8999649 17.6025792,16.2788075 17.1013043,15.9554348 L17.1013043,15.9554348 Z M9.0026087,1.78043478 C9.48052785,1.82119172 9.89424924,2.1288307 10.0708696,2.57478261 C9.36625075,2.42807826 8.63896664,2.42807826 7.93434783,2.57478261 C8.11096815,2.1288307 8.52468954,1.82119172 9.0026087,1.78043478 L9.0026087,1.78043478 Z M9.0026087,3.83478261 C11.8969565,3.83478261 14.0243478,6.75652174 14.0243478,9.31304348 C13.9986819,10.8517594 14.1783083,12.3870277 14.5584783,13.8782609 L3.44673913,13.8782609 C3.82690914,12.3870277 4.00653553,10.8517594 3.98086957,9.31304348 C3.98086957,6.75652174 6.10826087,3.83478261 9.0026087,3.83478261 Z M8.97065217,19.1921739 C8.28491264,19.1995301 7.62568715,18.9275996 7.14456522,18.438913 L10.751087,18.438913 C10.2813499,18.9167117 9.64067089,19.1877682 8.97065217,19.1921739 L8.97065217,19.1921739 Z M1.69826087,17.073913 C2.26929323,16.5826716 2.70602267,15.9542839 2.9673913,15.2478261 L15.0423913,15.2478261 C15.3037599,15.9542839 15.7404894,16.5826716 16.3115217,17.073913 L1.69826087,17.073913 Z" id="Shape"></path>
                </g>
            </g>
        </g>
    </g>
</svg>