<svg width="45" height="45" viewBox="0 0 45 45" fill="none" xmlns="http://www.w3.org/2000/svg">
<path fill-rule="evenodd" clip-rule="evenodd" d="M22.7202 0.400002C10.57 0.400002 0.720215 10.2497 0.720215 22.4C0.720215 34.5503 10.57 44.4 22.7202 44.4C34.8705 44.4 44.7202 34.5503 44.7202 22.4C44.7202 10.2497 34.8705 0.400002 22.7202 0.400002V0.400002ZM22.7202 41.4C12.2268 41.4 3.72021 32.8934 3.72021 22.4C3.72021 11.9066 12.2268 3.4 22.7202 3.4C33.2136 3.4 41.7202 11.9066 41.7202 22.4C41.7202 27.4391 39.7184 32.2718 36.1552 35.835C32.5921 39.3982 27.7593 41.4 22.7202 41.4Z" fill="#CDA555"/>
<path fill-rule="evenodd" clip-rule="evenodd" d="M30.8998 18.93L26.1498 18.37L23.9598 14.14C23.6955 13.6583 23.1785 13.3707 22.6298 13.4C22.0716 13.3757 21.5511 13.681 21.2998 14.18L19.2198 18.4L14.5398 18.91C13.969 18.9722 13.4837 19.3547 13.2901 19.8953C13.0964 20.4358 13.2283 21.0395 13.6298 21.45L17.1598 25.04L16.4198 29.82C16.331 30.3844 16.5706 30.9503 17.0377 31.2794C17.5047 31.6084 18.1182 31.6436 18.6198 31.37L22.8298 29.07L27.1098 31.23C27.62 31.4879 28.2325 31.4333 28.6891 31.0893C29.1457 30.7452 29.367 30.1716 29.2598 29.61L28.3698 24.89L31.7598 21.45C32.1621 21.0446 32.2972 20.4449 32.1077 19.9061C31.9182 19.3673 31.4373 18.9843 30.8698 18.92L30.8998 18.93ZM25.7098 23.35C25.3669 23.7012 25.2175 24.1979 25.3098 24.68L25.7798 27.18L23.5098 26.03C23.0718 25.7989 22.5479 25.7989 22.1098 26.03L19.8698 27.25L20.2598 24.73C20.3326 24.2625 20.1807 23.7881 19.8498 23.45L17.9598 21.53L20.3898 21.27C20.9071 21.2123 21.3575 20.8906 21.5798 20.42L22.6698 18.12L23.8298 20.39C24.0574 20.8303 24.4879 21.1297 24.9798 21.19L27.4998 21.5L25.7098 23.35Z" fill="#CDA555"/>
</svg>
