<?xml version="1.0" encoding="UTF-8"?>
<svg width="20px" height="20px" viewBox="0 0 20 20" version="1.1" xmlns="http://www.w3.org/2000/svg" xmlns:xlink="http://www.w3.org/1999/xlink">
    <!-- Generator: Sketch 52.5 (67469) - http://www.bohemiancoding.com/sketch -->
    <title>Add-2</title>
    <desc>Created with Sketch.</desc>
    <g id="Symbols" stroke="none" stroke-width="1" fill="none" fill-rule="evenodd">
        <g id="Menú/Lateral-Dashboard-Crear-Proyecto" transform="translate(-41.000000, -20.000000)" fill="#414140">
            <g id="Menú-Lateral">
                <g id="Crear-un-Espacio">
                    <g id="Add-2" transform="translate(41.000000, 20.000000)">
                        <path d="M0.32,9.95555556 C0.32,15.3556731 4.69766022,19.7333333 10.0977778,19.7333333 C15.4978953,19.7333333 19.8755556,15.3556731 19.8755556,9.95555556 C19.8755556,4.555438 15.4978953,0.177777778 10.0977778,0.177777778 C4.69766022,0.177777778 0.32,4.555438 0.32,9.95555556 Z M10.0977778,18.4 C5.43403989,18.4 1.65333333,14.6192934 1.65333333,9.95555556 C1.65333333,5.29181767 5.43403989,1.51111111 10.0977778,1.51111111 C14.7615157,1.51111111 18.5422222,5.29181767 18.5422222,9.95555556 C18.5422222,12.1951615 17.6525422,14.343039 16.0689017,15.9266795 C14.4852612,17.51032 12.3373837,18.4 10.0977778,18.4 Z" id="Shape"></path>
                        <path d="M10.9866667,9.51111111 L10.9866667,6.84444444 C10.9866667,6.47625461 10.6881898,6.17777778 10.32,6.17777778 C9.95181017,6.17777778 9.65333333,6.47625461 9.65333333,6.84444444 L9.65333333,9.51111111 L6.98666667,9.51111111 C6.61847683,9.51111111 6.32,9.80958794 6.32,10.1777778 C6.32,10.5459676 6.61847683,10.8444444 6.98666667,10.8444444 L9.65333333,10.8444444 L9.65333333,13.5111111 C9.65333333,13.8793009 9.95181017,14.1777778 10.32,14.1777778 C10.6881898,14.1777778 10.9866667,13.8793009 10.9866667,13.5111111 L10.9866667,10.8444444 L13.6533333,10.8444444 C14.0215232,10.8444444 14.32,10.5459676 14.32,10.1777778 C14.32,9.80958794 14.0215232,9.51111111 13.6533333,9.51111111 L10.9866667,9.51111111 Z" id="Shape"></path>
                    </g>
                </g>
            </g>
        </g>
    </g>
</svg>