<?xml version="1.0" encoding="UTF-8"?>
<svg width="19px" height="19px" viewBox="0 0 19 19" version="1.1" xmlns="http://www.w3.org/2000/svg" xmlns:xlink="http://www.w3.org/1999/xlink">
    <!-- Generator: Sketch 52.5 (67469) - http://www.bohemiancoding.com/sketch -->
    <title>linkedin</title>
    <desc>Created with Sketch.</desc>
    <g id="Symbols" stroke="none" stroke-width="1" fill="none" fill-rule="evenodd">
        <g id="Menú/Footer-Página-Web" transform="translate(-911.000000, -178.000000)">
            <g id="Footer">
                <g id="linkedin" transform="translate(911.000000, 178.000000)">
                    <circle id="Oval" fill="#414140" cx="9.5" cy="9.5" r="9.5"></circle>
                    <path d="M15,10.1305003 L15,14 L12.6418271,14 L12.6418271,10.3898277 C12.6418271,9.48335285 12.3013526,8.8643132 11.4475283,8.8643132 C10.7959487,8.8643132 10.40887,9.28107746 10.2379293,9.68462439 C10.1758489,9.8288439 10.1598452,10.0291116 10.1598452,10.231387 L10.1598452,13.9998327 L7.80149645,13.9998327 C7.80149645,13.9998327 7.83315214,7.88539401 7.80149645,7.25246779 L10.1600211,7.25246779 L10.1600211,8.20863309 C10.1552728,8.21616195 10.1485899,8.22352351 10.1443691,8.23071775 L10.1600211,8.23071775 L10.1600211,8.20863309 C10.4734124,7.74987452 11.0323112,7.0940271 12.2853489,7.0940271 C13.8368293,7.0940271 15,8.0583905 15,10.1305003 Z M5.33446313,4 C4.52777067,4 4,4.50376443 4,5.16563493 C4,5.81345156 4.51247042,6.33177179 5.3035109,6.33177179 L5.31881115,6.33177179 C6.14133146,6.33177179 6.65274669,5.81345156 6.65274669,5.16563493 C6.63709471,4.50376443 6.14133146,4 5.33446313,4 Z M4.14016435,14 L6.49763382,14 L6.49763382,7.25246779 L4.14016435,7.25246779 L4.14016435,14 Z" id="Shape" fill="#F1F2F2" fill-rule="nonzero"></path>
                </g>
            </g>
        </g>
    </g>
</svg>