<?xml version="1.0" encoding="UTF-8"?>
<svg width="17px" height="20px" viewBox="0 0 17 20" version="1.1" xmlns="http://www.w3.org/2000/svg" xmlns:xlink="http://www.w3.org/1999/xlink">
    <!-- Generator: Sketch 52.5 (67469) - http://www.bohemiancoding.com/sketch -->
    <title>Flag</title>
    <desc>Created with Sketch.</desc>
    <g id="Symbols" stroke="none" stroke-width="1" fill="none" fill-rule="evenodd">
        <g id="Menú/Lateral-Dashboard-Crear-Proyecto" transform="translate(-42.000000, -80.000000)" fill="#414140">
            <g id="Menú-Lateral">
                <g id="Mis-Espacios" transform="translate(0.000000, 60.000000)">
                    <g id="Flag" transform="translate(42.000000, 20.000000)">
                        <path d="M14.3428571,6.9 L16.3952381,3.27619048 C16.6460786,2.83391101 16.642933,2.29163784 16.3869784,1.85229817 C16.1310239,1.41295849 15.6608415,1.14277596 15.152381,1.14285714 L1.77142857,1.14285714 C1.77142857,0.748368036 1.45163196,0.428571429 1.05714286,0.428571429 C0.66265375,0.428571429 0.342857143,0.748368036 0.342857143,1.14285714 L0.342857143,19.2380952 C0.342857143,19.6325843 0.66265375,19.952381 1.05714286,19.952381 C1.45163196,19.952381 1.77142857,19.6325843 1.77142857,19.2380952 L1.77142857,13.047619 L15.1047619,13.047619 C15.5993698,13.0469431 16.058437,12.7904711 16.3183089,12.3696338 C16.5781808,11.9487965 16.6018779,11.4234785 16.3809524,10.9809524 L14.3428571,6.9 Z M1.77142857,11.6190476 L1.77142857,2.57142857 L15.1047619,2.57142857 L12.6904762,6.85714286 L15.0714286,11.6190476 L1.77142857,11.6190476 Z" id="Shape"></path>
                    </g>
                </g>
            </g>
        </g>
    </g>
</svg>