<svg width="17" height="21" viewBox="0 0 17 21" fill="none" xmlns="http://www.w3.org/2000/svg">
<path fill-rule="evenodd" clip-rule="evenodd" d="M0 8.48077C0 3.95769 3.95769 0 8.48077 0C13.0038 0 16.9615 3.95769 16.9615 8.48077C16.9615 9.89423 16.349 11.4019 15.8308 12.3913C15.8308 12.3913 15.7837 12.4385 15.7837 12.4856C15.7365 12.5798 14.5587 14.4644 13.1923 16.349C10.601 20.024 9.51731 20.7308 8.48077 20.7308C7.82115 20.7308 6.31346 20.7308 1.17788 12.4856C1.17788 12.4856 1.13077 12.4385 1.13077 12.3913C0.6125 11.4019 0 9.89423 0 8.48077ZM8.48077 19.3173C9.89423 19.3173 14.6058 11.7788 14.6058 11.7788C15.0298 10.8365 15.5481 9.56442 15.5481 8.48077C15.5481 4.71154 12.25 1.41346 8.48077 1.41346C4.71154 1.41346 1.41346 4.71154 1.41346 8.48077C1.41346 9.61154 1.88462 10.8837 2.35577 11.7788C2.35577 11.7788 7.06731 19.3173 8.48077 19.3173Z" fill="#CDA555"/>
<path fill-rule="evenodd" clip-rule="evenodd" d="M4.71191 8.00959C4.71191 5.93651 6.40807 4.24036 8.48114 4.24036C10.5542 4.24036 12.2504 5.93651 12.2504 8.00959C12.2504 10.0827 10.5542 11.7788 8.48114 11.7788C6.40807 11.7788 4.71191 10.0827 4.71191 8.00959ZM6.12538 8.00959C6.12538 9.32882 7.16191 10.3654 8.48114 10.3654C9.80038 10.3654 10.8369 9.32882 10.8369 8.00959C10.8369 6.69036 9.80038 5.65382 8.48114 5.65382C7.16191 5.65382 6.12538 6.69036 6.12538 8.00959Z" fill="#CDA555"/>
</svg>
