<svg width="25" height="25" viewBox="0 0 25 25" fill="none" xmlns="http://www.w3.org/2000/svg">
<path fill-rule="evenodd" clip-rule="evenodd" d="M9.20001 0.25H2.32501C1.28948 0.25 0.450012 1.08947 0.450012 2.125V9C0.450012 10.0355 1.28948 10.875 2.32501 10.875H9.20001C10.2355 10.875 11.075 10.0355 11.075 9V2.125C11.075 1.08947 10.2355 0.25 9.20001 0.25ZM9.20001 9H2.32501V2.125H9.20001V9Z" fill="#000000"/>
<path fill-rule="evenodd" clip-rule="evenodd" d="M22.95 0.25H16.075C15.0395 0.25 14.2 1.08947 14.2 2.125V9C14.2 10.0355 15.0395 10.875 16.075 10.875H22.95C23.9855 10.875 24.825 10.0355 24.825 9V2.125C24.825 1.08947 23.9855 0.25 22.95 0.25ZM22.95 9H16.075V2.125H22.95V9Z" fill="#000000"/>
<path fill-rule="evenodd" clip-rule="evenodd" d="M9.20001 14H2.32501C1.28948 14 0.450012 14.8395 0.450012 15.875V22.75C0.450012 23.7855 1.28948 24.625 2.32501 24.625H9.20001C10.2355 24.625 11.075 23.7855 11.075 22.75V15.875C11.075 14.8395 10.2355 14 9.20001 14ZM9.20001 22.75H2.32501V15.875H9.20001V22.75Z" fill="#000000"/>
<path fill-rule="evenodd" clip-rule="evenodd" d="M22.95 14H16.075C15.0395 14 14.2 14.8395 14.2 15.875V22.75C14.2 23.7855 15.0395 24.625 16.075 24.625H22.95C23.9855 24.625 24.825 23.7855 24.825 22.75V15.875C24.825 14.8395 23.9855 14 22.95 14ZM22.95 22.75H16.075V15.875H22.95V22.75Z" fill="#000000"/>
</svg>
