<svg width="20" height="20" viewBox="0 0 20 20" fill="none" xmlns="http://www.w3.org/2000/svg">
<path fill-rule="evenodd" clip-rule="evenodd" d="M10.0981 0.17778C4.69797 0.17778 0.320312 4.55544 0.320312 9.95556C0.320312 15.3557 4.69797 19.7333 10.0981 19.7333C15.4982 19.7333 19.8759 15.3557 19.8759 9.95556C19.8759 4.55544 15.4982 0.17778 10.0981 0.17778V0.17778ZM10.0981 18.4C5.43435 18.4 1.65365 14.6193 1.65365 9.95556C1.65365 5.29182 5.43435 1.51111 10.0981 1.51111C14.7618 1.51111 18.5425 5.29182 18.5425 9.95556C18.5425 12.1952 17.6529 14.343 16.0692 15.9267C14.4856 17.5103 12.3377 18.4 10.0981 18.4Z" fill="#BCBCBC"/>
<path fill-rule="evenodd" clip-rule="evenodd" d="M13.6721 6.36444C13.4118 6.10449 12.9901 6.10449 12.7299 6.36444L10.201 8.99556L7.44986 6.32889C7.27999 6.15525 7.02911 6.08775 6.79504 6.15272C6.56097 6.21768 6.38076 6.40482 6.32467 6.64117C6.26858 6.87753 6.3455 7.12568 6.52542 7.28889L9.25875 9.92L6.52542 12.5511C6.3455 12.7143 6.26858 12.9625 6.32467 13.1988C6.38076 13.4352 6.56097 13.6223 6.79504 13.6873C7.02911 13.7522 7.27999 13.6848 7.44986 13.5111L10.201 10.8444L12.7299 13.4756C12.8931 13.6555 13.1412 13.7324 13.3776 13.6763C13.6139 13.6202 13.8011 13.44 13.866 13.2059C13.931 12.9719 13.8635 12.721 13.6899 12.5511L11.1432 9.88444L13.6899 7.21778C13.8907 6.96632 13.8832 6.60732 13.6721 6.36444V6.36444Z" fill="#BCBCBC"/>
</svg>
