<svg width="19" height="11" viewBox="0 0 19 11" fill="none" xmlns="http://www.w3.org/2000/svg">
<path fill-rule="evenodd" clip-rule="evenodd" d="M0.0192451 4.93325C-0.0424023 5.23438 0.0458031 5.54696 0.255262 5.76965L4.13711 9.85731C4.36518 10.1119 4.71197 10.2207 5.04226 10.1414C5.37256 10.062 5.63408 9.80701 5.72487 9.47581C5.81565 9.14461 5.72133 8.78963 5.47867 8.54926L3.1123 6.03378L17.0994 6.03378C17.6139 6.03378 18.031 5.61144 18.031 5.09047C18.031 4.5695 17.6139 4.14717 17.0994 4.14717L2.99429 4.14717L5.6091 1.71973C5.90761 1.51113 6.05942 1.14608 5.99819 0.78411C5.93696 0.422139 5.67381 0.129056 5.32375 0.0329409C4.97369 -0.0631742 4.60036 0.0551538 4.36691 0.336213L0.329794 4.10943C0.0952644 4.31314 -0.0215912 4.62313 0.0192451 4.93325Z" fill="#808182"/>
</svg>
