<svg width="21" height="21" viewBox="0 0 21 21" fill="none" xmlns="http://www.w3.org/2000/svg">
<path fill-rule="evenodd" clip-rule="evenodd" d="M10.6026 0.186668C4.93248 0.186668 0.335938 4.78321 0.335938 10.4533C0.335938 16.1235 4.93248 20.72 10.6026 20.72C16.2727 20.72 20.8693 16.1235 20.8693 10.4533C20.8693 4.78321 16.2727 0.186668 10.6026 0.186668V0.186668ZM10.6026 19.32C5.70568 19.32 1.73594 15.3503 1.73594 10.4533C1.73594 5.55641 5.70568 1.58667 10.6026 1.58667C15.4995 1.58667 19.4693 5.55641 19.4693 10.4533C19.4693 12.8049 18.5351 15.0602 16.8723 16.723C15.2095 18.3858 12.9542 19.32 10.6026 19.32Z" fill="#414140"/>
<path fill-rule="evenodd" clip-rule="evenodd" d="M14.3548 6.68266C14.0815 6.40971 13.6388 6.40971 13.3655 6.68266L10.7101 9.44533L7.82148 6.64533C7.64311 6.46301 7.37968 6.39214 7.13391 6.46035C6.88814 6.52856 6.69892 6.72506 6.64003 6.97323C6.58113 7.2214 6.66189 7.48196 6.85081 7.65333L9.72081 10.416L6.85081 13.1787C6.66189 13.35 6.58113 13.6106 6.64003 13.8588C6.69892 14.1069 6.88814 14.3034 7.13391 14.3716C7.37968 14.4399 7.64311 14.369 7.82148 14.1867L10.7101 11.3867L13.3655 14.1493C13.5368 14.3383 13.7974 14.419 14.0456 14.3601C14.2938 14.3012 14.4902 14.112 14.5585 13.8662C14.6267 13.6205 14.5558 13.357 14.3735 13.1787L11.6995 10.3787L14.3735 7.57866C14.5843 7.31463 14.5765 6.93768 14.3548 6.68266Z" fill="#414140"/>
</svg>
