<svg width="45" height="45" viewBox="0 0 45 45" fill="none" xmlns="http://www.w3.org/2000/svg">
<path fill-rule="evenodd" clip-rule="evenodd" d="M28.2202 14.4H17.2202C16.3918 14.4 15.7202 15.0716 15.7202 15.9V30.15C15.7198 30.7442 16.0702 31.2825 16.6135 31.5228C17.1569 31.7631 17.7909 31.6601 18.2302 31.26L22.7202 27.15L27.2102 31.26C27.6495 31.6601 28.2835 31.7631 28.8269 31.5228C29.3703 31.2825 29.7206 30.7442 29.7202 30.15V15.9C29.7202 15.0716 29.0486 14.4 28.2202 14.4ZM26.7202 26.74L23.7202 24C23.1508 23.4907 22.2896 23.4907 21.7202 24L18.7202 26.74V17.4H26.7202V26.74Z" fill="#CDA555"/>
<path fill-rule="evenodd" clip-rule="evenodd" d="M22.7202 0.400002C10.57 0.400002 0.720215 10.2497 0.720215 22.4C0.720215 34.5503 10.57 44.4 22.7202 44.4C34.8705 44.4 44.7202 34.5503 44.7202 22.4C44.7202 10.2497 34.8705 0.400002 22.7202 0.400002V0.400002ZM22.7202 41.4C12.2268 41.4 3.72021 32.8934 3.72021 22.4C3.72021 11.9066 12.2268 3.4 22.7202 3.4C33.2136 3.4 41.7202 11.9066 41.7202 22.4C41.7202 27.4391 39.7184 32.2718 36.1552 35.835C32.5921 39.3982 27.7593 41.4 22.7202 41.4Z" fill="#CDA555"/>
</svg>
