<svg width="22" height="19" viewBox="0 0 22 19" fill="none" xmlns="http://www.w3.org/2000/svg">
<path fill-rule="evenodd" clip-rule="evenodd" d="M21.2817 1.28143V17.5087C21.2817 17.9041 20.9612 18.2246 20.5658 18.2246H9.11129C8.71591 18.2246 8.39539 17.9041 8.39539 17.5087V13.9292C8.39539 13.5338 8.71591 13.2132 9.11129 13.2132C9.50668 13.2132 9.8272 13.5338 9.8272 13.9292V16.7928H19.8499V1.99734H9.8272V5.33825C9.8272 5.73363 9.50668 6.05415 9.11129 6.05415C8.71591 6.05415 8.39539 5.73363 8.39539 5.33825L8.39539 1.28143C8.39539 0.886042 8.71591 0.565519 9.11129 0.565519H20.5658C20.9612 0.565519 21.2817 0.886042 21.2817 1.28143Z" fill="#414140"/>
<path fill-rule="evenodd" clip-rule="evenodd" d="M15.7931 9.39519C15.7931 9.79057 15.4726 10.1111 15.0772 10.1111H3.72768L5.98041 11.9438C6.28749 12.1929 6.3345 12.6438 6.08541 12.9509C5.83631 13.258 5.38545 13.305 5.07836 13.0559L1.18859 9.88678C1.11182 9.73326 1.04796 9.57362 0.997681 9.40951C1.06866 9.21592 1.15985 9.03035 1.26973 8.85587L5.08791 5.7536C5.23459 5.63424 5.42277 5.57822 5.61085 5.59792C5.79893 5.61762 5.97142 5.71143 6.09018 5.8586C6.20981 6.00606 6.26595 6.19501 6.24626 6.38387C6.22657 6.57273 6.13266 6.74603 5.98518 6.86564L3.73245 8.69837H15.0772C15.4653 8.69823 15.7828 9.00728 15.7931 9.39519Z" fill="#414140"/>
</svg>
