<svg width="24" height="21" viewBox="0 0 24 21" fill="none" xmlns="http://www.w3.org/2000/svg">
<path fill-rule="evenodd" clip-rule="evenodd" d="M18.296 1.74166C19.9932 1.74166 21.3691 3.11757 21.3691 4.81483V13.01C21.3691 14.7072 19.9932 16.0831 18.296 16.0831H8.94841L5.49109 19.1563V16.0831H4.9789C3.28163 16.0831 1.90573 14.7072 1.90573 13.01V4.81483C1.90573 3.11757 3.28163 1.74166 4.9789 1.74166H18.296ZM18.296 0.205078H4.9789C2.433 0.205078 0.369141 2.26894 0.369141 4.81483V13.01C0.367937 15.1621 1.85613 17.0288 3.95451 17.507V19.1563C3.95371 19.7626 4.30953 20.3127 4.86286 20.5606C5.41619 20.8085 6.06356 20.7078 6.51548 20.3036L9.53743 17.6197H18.296C20.8419 17.6197 22.9057 15.5559 22.9057 13.01V4.81483C22.9057 2.26894 20.8419 0.205078 18.296 0.205078Z" fill="#808182"/>
<path fill-rule="evenodd" clip-rule="evenodd" d="M11.6374 9.68063C12.0617 9.68063 12.4057 9.33665 12.4057 8.91234C12.4057 8.48802 12.0617 8.14404 11.6374 8.14404C11.2131 8.14404 10.8691 8.48802 10.8691 8.91234C10.8691 9.33665 11.2131 9.68063 11.6374 9.68063Z" fill="#808182"/>
<path fill-rule="evenodd" clip-rule="evenodd" d="M16.7585 9.68063C17.1828 9.68063 17.5268 9.33665 17.5268 8.91234C17.5268 8.48802 17.1828 8.14404 16.7585 8.14404C16.3342 8.14404 15.9902 8.48802 15.9902 8.91234C15.9902 9.33665 16.3342 9.68063 16.7585 9.68063Z" fill="#808182"/>
<path fill-rule="evenodd" clip-rule="evenodd" d="M6.57689 9.68063C7.0012 9.68063 7.34518 9.33665 7.34518 8.91234C7.34518 8.48802 7.0012 8.14404 6.57689 8.14404C6.15257 8.14404 5.80859 8.48802 5.80859 8.91234C5.80859 9.33665 6.15257 9.68063 6.57689 9.68063Z" fill="#808182"/>
</svg>
