<svg width="17" height="20" viewBox="0 0 17 20" fill="none" xmlns="http://www.w3.org/2000/svg">
<path fill-rule="evenodd" clip-rule="evenodd" d="M14.3429 6.90014L16.3953 3.27633C16.6461 2.83405 16.643 2.29178 16.387 1.85244C16.1311 1.4131 15.6609 1.14292 15.1524 1.143H1.77147C1.77147 0.748508 1.45167 0.428711 1.05718 0.428711C0.662692 0.428711 0.342896 0.748508 0.342896 1.143V19.2382C0.342896 19.6327 0.662692 19.9525 1.05718 19.9525C1.45167 19.9525 1.77147 19.6327 1.77147 19.2382V13.0478H15.1048C15.5994 13.0471 16.0585 12.7906 16.3183 12.3698C16.5782 11.9489 16.6019 11.4236 16.381 10.9811L14.3429 6.90014ZM1.77147 11.6192V2.57157H15.1048L12.6905 6.85728L15.0715 11.6192H1.77147Z" fill="#414140"/>
</svg>
