<?xml version="1.0" encoding="UTF-8"?>
<svg width="22px" height="20px" viewBox="0 0 22 20" version="1.1" xmlns="http://www.w3.org/2000/svg" xmlns:xlink="http://www.w3.org/1999/xlink">
    <!-- Generator: Sketch 52.5 (67469) - http://www.bohemiancoding.com/sketch -->
    <title>Calendar</title>
    <desc>Created with Sketch.</desc>
    <g id="Symbols" stroke="none" stroke-width="1" fill="none" fill-rule="evenodd">
        <g id="Menú/Lateral-Dashboard-Crear-Proyecto" transform="translate(-40.000000, -200.000000)" fill="#414140" fill-rule="nonzero">
            <g id="Menú-Lateral">
                <g id="Calendario" transform="translate(0.000000, 180.000000)">
                    <g id="Calendar" transform="translate(40.000000, 20.000000)">
                        <path d="M20.0075605,2.22899434 L17.5141129,2.22899434 L17.5141129,1.60208968 C17.5141129,0.718328254 16.8072077,0 15.9332157,0 C15.0635081,0 14.3523185,0.718328254 14.3523185,1.60208968 L14.3523185,2.22899434 L12.5443548,2.22899434 L12.5443548,1.60208968 C12.5443548,0.718328254 11.8374496,0 10.9634577,0 C10.0894657,0 9.38256048,0.718328254 9.38256048,1.60208968 L9.38256048,2.22899434 L7.57459677,2.22899434 L7.57459677,1.60208968 C7.57459677,0.718328254 6.86769153,0 5.9936996,0 C5.11970766,0 4.41280242,0.718328254 4.41280242,1.60208968 L4.41280242,2.22899434 L1.92792339,2.22899434 C0.865423387,2.22899434 0,3.10840226 0,4.1880714 L0,18.0409229 C0,19.1205921 0.865423387,20 1.92792339,20 L20.0075605,20 C21.0700605,20 21.9354839,19.1205921 21.9354839,18.0409229 L21.9354839,4.1880714 C21.9354839,3.10404876 21.0700605,2.22899434 20.0075605,2.22899434 Z M20.0075605,18.6895951 L1.92792339,18.6895951 C1.57232863,18.6895951 1.28528226,18.3979103 1.28528226,18.0365694 L1.28528226,8.21070962 L20.6502016,8.21070962 L20.6502016,18.0365694 C20.6502016,18.3979103 20.3631552,18.6895951 20.0075605,18.6895951 Z M1.92792339,3.53504571 L6.29359879,3.53504571 L6.29359879,4.29690901 C6.29359879,4.65824989 6.58064516,4.9499347 6.93623992,4.9499347 C7.29183468,4.9499347 7.57888105,4.65824989 7.57888105,4.29690901 L7.57888105,3.53504571 L11.2590726,3.53504571 L11.2590726,4.29690901 C11.2590726,4.65824989 11.546119,4.9499347 11.9017137,4.9499347 C12.2573085,4.9499347 12.5443548,4.65824989 12.5443548,4.29690901 L12.5443548,3.53504571 L16.2245464,3.53504571 L16.2245464,4.29690901 C16.2245464,4.65824989 16.5115927,4.9499347 16.8671875,4.9499347 C17.2227823,4.9499347 17.5098286,4.65824989 17.5098286,4.29690901 L17.5098286,3.53504571 L20.0075605,3.53504571 C20.3631552,3.53504571 20.6502016,3.82673052 20.6502016,4.1880714 L20.6502016,6.90901175 L1.28528226,6.90901175 L1.28528226,4.1880714 C1.28528226,3.82673052 1.57232863,3.53504571 1.92792339,3.53504571 Z M15.6418851,1.60208968 C15.6418851,1.44101001 15.7746976,1.30605137 15.9375,1.30605137 C16.0960181,1.30605137 16.2331149,1.44101001 16.2331149,1.60208968 L16.2331149,2.22899434 L15.6461694,2.22899434 L15.6461694,1.60208968 L15.6418851,1.60208968 Z M10.672127,1.60208968 C10.672127,1.44101001 10.8049395,1.30605137 10.9677419,1.30605137 C11.1305444,1.30605137 11.2633569,1.44101001 11.2633569,1.60208968 L11.2633569,2.22899434 L10.6764113,2.22899434 L10.6764113,1.60208968 L10.672127,1.60208968 Z M5.70665323,1.60208968 C5.70665323,1.44101001 5.83946573,1.30605137 6.00226815,1.30605137 C6.16078629,1.30605137 6.29788306,1.44101001 6.29788306,1.60208968 L6.29788306,2.22899434 L5.7109375,2.22899434 L5.70665323,1.60208968 Z M4.42565524,12.5119721 C3.79586694,12.5119721 3.28175403,11.9895516 3.28175403,11.3495864 C3.28175403,10.7096212 3.79586694,10.1872007 4.42565524,10.1872007 C5.05544355,10.1872007 5.56955645,10.7096212 5.56955645,11.3495864 C5.56955645,11.9895516 5.05544355,12.5119721 4.42565524,12.5119721 Z M8.76134073,12.5119721 C8.13155242,12.5119721 7.61743952,11.9895516 7.61743952,11.3495864 C7.61743952,10.7096212 8.13155242,10.1872007 8.76134073,10.1872007 C9.39112903,10.1872007 9.90524194,10.7096212 9.90524194,11.3495864 C9.90524194,11.9895516 9.39541331,12.5119721 8.76134073,12.5119721 Z M13.1013105,12.5119721 C12.4715222,12.5119721 11.9574093,11.9895516 11.9574093,11.3495864 C11.9574093,10.7096212 12.4715222,10.1872007 13.1013105,10.1872007 C13.7310988,10.1872007 14.2452117,10.7096212 14.2452117,11.3495864 C14.2409274,11.9895516 13.7310988,12.5119721 13.1013105,12.5119721 Z M17.436996,12.5119721 C16.8072077,12.5119721 16.2930948,11.9895516 16.2930948,11.3495864 C16.2930948,10.7096212 16.8072077,10.1872007 17.436996,10.1872007 C18.0667843,10.1872007 18.5808972,10.7096212 18.5808972,11.3495864 C18.5808972,11.9895516 18.0667843,12.5119721 17.436996,12.5119721 Z M4.42565524,16.7740531 C3.79586694,16.7740531 3.28175403,16.2516326 3.28175403,15.6116674 C3.28175403,14.9717022 3.79586694,14.4492817 4.42565524,14.4492817 C5.05544355,14.4492817 5.56955645,14.9717022 5.56955645,15.6116674 C5.56955645,16.2516326 5.05544355,16.7740531 4.42565524,16.7740531 Z M8.76134073,16.7740531 C8.13155242,16.7740531 7.61743952,16.2516326 7.61743952,15.6116674 C7.61743952,14.9717022 8.13155242,14.4492817 8.76134073,14.4492817 C9.39112903,14.4492817 9.90524194,14.9717022 9.90524194,15.6116674 C9.90524194,16.2516326 9.39541331,16.7740531 8.76134073,16.7740531 Z M13.1013105,16.7740531 C12.4715222,16.7740531 11.9574093,16.2516326 11.9574093,15.6116674 C11.9574093,14.9717022 12.4715222,14.4492817 13.1013105,14.4492817 C13.7310988,14.4492817 14.2452117,14.9717022 14.2452117,15.6116674 C14.2409274,16.2516326 13.7310988,16.7740531 13.1013105,16.7740531 Z M17.436996,16.7740531 C16.8072077,16.7740531 16.2930948,16.2516326 16.2930948,15.6116674 C16.2930948,14.9717022 16.8072077,14.4492817 17.436996,14.4492817 C18.0667843,14.4492817 18.5808972,14.9717022 18.5808972,15.6116674 C18.5808972,16.2516326 18.0667843,16.7740531 17.436996,16.7740531 Z" id="Shape"></path>
                    </g>
                </g>
            </g>
        </g>
    </g>
</svg>