<?xml version="1.0" encoding="UTF-8"?>
<svg width="21px" height="20px" viewBox="0 0 21 20" version="1.1" xmlns="http://www.w3.org/2000/svg" xmlns:xlink="http://www.w3.org/1999/xlink">
    <!-- Generator: Sketch 52.5 (67469) - http://www.bohemiancoding.com/sketch -->
    <title>User</title>
    <desc>Created with Sketch.</desc>
    <g id="Symbols" stroke="none" stroke-width="1" fill="none" fill-rule="evenodd">
        <g id="Menú/Lateral-Dashboard-Crear-Proyecto" transform="translate(-40.000000, -380.000000)" fill="#414140">
            <g id="Menú-Lateral">
                <g id="Mi-Perfil" transform="translate(0.000000, 360.000000)">
                    <g id="User" transform="translate(40.000000, 20.000000)">
                        <path d="M11,12 C13.755,12 16,9.31 16,6 C16,2.69 13.755,0 11,0 C8.245,0 6,2.69 6,6 C6,9.31 8.25,12 11,12 Z M11,1.5 C12.935,1.5 14.5,3.5 14.5,6 C14.5,8.5 12.935,10.5 11,10.5 C9.065,10.5 7.5,8.5 7.5,6 C7.5,3.5 9.065,1.5 11,1.5 Z" id="Shape"></path>
                        <path d="M15.1865854,12.0040508 C14.7622691,11.959861 14.3838951,12.2822677 14.3414635,12.7241663 C14.2990319,13.166065 14.6086105,13.5601176 15.0329268,13.6043075 C17.4156696,13.8958965 19.2616794,15.9125077 19.427561,18.4050775 L1.57243902,18.4050775 C1.75400092,15.9197424 3.59201802,13.9118625 5.96707317,13.6043075 C6.3913895,13.5601176 6.70096822,13.166065 6.65853659,12.7241663 C6.61610495,12.2822677 6.23773097,11.959861 5.81341463,12.0040508 C5.75707317,12.0040508 0,12.686827 0,19.1998717 C0,19.6417703 0.343976351,20 0.768292683,20 L20.2317073,20 C20.6560236,20 21,19.6417703 21,19.1998717 C21,12.686827 15.2429268,12.0040508 15.1865854,12.0040508 Z" id="Shape"></path>
                    </g>
                </g>
            </g>
        </g>
    </g>
</svg>