<?xml version="1.0" encoding="UTF-8"?>
<svg width="20px" height="20px" viewBox="0 0 20 20" version="1.1" xmlns="http://www.w3.org/2000/svg" xmlns:xlink="http://www.w3.org/1999/xlink">
    <!-- Generator: Sketch 52.5 (67469) - http://www.bohemiancoding.com/sketch -->
    <title>Add-2</title>
    <desc>Created with Sketch.</desc>
    <g id="Symbols" stroke="none" stroke-width="1" fill="none" fill-rule="evenodd">
        <g id="Menú/Lateral-Dashboard-Crear-Proyecto" transform="translate(-41.000000, -20.000000)" fill="#414140">
            <g id="Menú-Lateral">
                <g id="Crear-un-Espacio">
                    <g id="Add-2" transform="translate(41.000000, 20.000000)">
                        <path d="M0.32,9.95555556 C0.32,15.3556731 4.69766022,19.7333333 10.0977778,19.7333333 C15.4978953,19.7333333 19.8755556,15.3556731 19.8755556,9.95555556 C19.8755556,4.555438 15.4978953,0.177777778 10.0977778,0.177777778 C4.69766022,0.177777778 0.32,4.555438 0.32,9.95555556 Z M10.0977778,18.4 C5.43403989,18.4 1.65333333,14.6192934 1.65333333,9.95555556 C1.65333333,5.29181767 5.43403989,1.51111111 10.0977778,1.51111111 C14.7615157,1.51111111 18.5422222,5.29181767 18.5422222,9.95555556 C18.5422222,12.1951615 17.6525422,14.343039 16.0689017,15.9266795 C14.4852612,17.51032 12.3373837,18.4 10.0977778,18.4 Z" id="Shape"></path>
                        
                    </g>
                    <g id="Add-2" transform="translate(45.500000, 29.000000)">
                        <path d="M6.73698 0.0439453H5.04427H1.65885C1.19143 0.0439453 0.8125 0.422871 0.8125 0.890299C0.8125 1.35773 1.19143 1.73665 1.65885 1.73665H5.04427H6.73698H10.1224C10.5898 1.73665 10.9688 1.35773 10.9688 0.890299C10.9688 0.422871 10.5898 0.0439453 10.1224 0.0439453H6.73698Z" id="Shape"></path>
                    </g>
                </g>
            </g>
        </g>
    </g>
</svg>