<svg width="21" height="23" viewBox="0 0 21 23" fill="none" xmlns="http://www.w3.org/2000/svg">
<path fill-rule="evenodd" clip-rule="evenodd" d="M20.7831 20.7157L15.8044 15.7639C19.2929 12.2539 19.3992 6.61949 16.0456 2.98039C12.692 -0.658706 7.0677 -1.01213 3.28495 2.17853C-0.497793 5.36919 -1.09767 10.9726 1.92394 14.8917C4.94555 18.8108 10.5172 19.656 14.5652 16.8092L19.6408 21.8849C19.9592 22.1816 20.4555 22.1729 20.7633 21.8651C21.0711 21.5573 21.0798 21.061 20.7831 20.7426V20.7157ZM1.75752 9.29816C1.75752 5.13205 5.13482 1.75475 9.30093 1.75475C13.467 1.75475 16.8443 5.13205 16.8443 9.29816C16.8443 13.4643 13.467 16.8416 9.30093 16.8416C5.13482 16.8416 1.75752 13.4643 1.75752 9.29816Z" fill="#808182"/>
</svg>
