<?xml version="1.0" encoding="UTF-8"?>
<svg width="19px" height="19px" viewBox="0 0 19 19" version="1.1" xmlns="http://www.w3.org/2000/svg" xmlns:xlink="http://www.w3.org/1999/xlink">
    <!-- Generator: Sketch 52.5 (67469) - http://www.bohemiancoding.com/sketch -->
    <title>instagram</title>
    <desc>Created with Sketch.</desc>
    <g id="Symbols" stroke="none" stroke-width="1" fill="none" fill-rule="evenodd">
        <g id="Menú/Footer-Página-Web" transform="translate(-911.000000, -142.000000)" fill="#414140">
            <g id="Footer">
                <g id="instagram" transform="translate(911.000000, 142.000000)">
                    <path d="M12.349826,5 L6.64996094,5 C5.74018134,5 5,5.74018134 5,6.64996094 L5,12.349826 C5,13.2596056 5.74018134,14 6.64996094,14 L12.349826,14 C13.2596056,14 14,13.2598187 14,12.349826 L14,6.64996094 C14,5.74018134 13.2598187,5 12.349826,5 Z M9.49989347,12.4627495 C7.86633839,12.4627495 6.53725054,11.1336616 6.53725054,9.49989347 C6.53725054,7.86633839 7.86633839,6.53725054 9.49989347,6.53725054 C11.1336616,6.53725054 12.4627495,7.86633839 12.4627495,9.49989347 C12.4627495,11.1334485 11.1334485,12.4627495 9.49989347,12.4627495 Z M12.5579887,7.14980706 C12.1712791,7.14980706 11.8567979,6.83532587 11.8567979,6.44882934 C11.8567979,6.0623328 12.1712791,5.74785161 12.5579887,5.74785161 C12.9444852,5.74785161 13.2589664,6.0623328 13.2589664,6.44882934 C13.2589664,6.83532587 12.9444852,7.14980706 12.5579887,7.14980706 Z" id="Shape" fill-rule="nonzero"></path>
                    <path d="M9.50009341,8 C8.67326733,8 8,8.6728937 8,9.49971978 C8,10.3269195 8.67326733,11 9.50009341,11 C10.3272931,11 11,10.3269195 11,9.49971978 C11,8.67308052 10.3271063,8 9.50009341,8 Z" id="Path"></path>
                    <path d="M9.5,0 C4.25350387,0 0,4.25350387 0,9.5 C0,14.7464961 4.25350387,19 9.5,19 C14.7464961,19 19,14.7464961 19,9.5 C19,4.25350387 14.7464961,0 9.5,0 Z M15.2145213,12.357049 C15.2145213,13.9469797 13.9213663,15.2401346 12.3314356,15.2401346 L6.66856436,15.2401346 C5.07884534,15.2401346 3.78547873,13.9469797 3.78547873,12.357049 L3.78547873,6.69417768 C3.78547873,5.10445866 5.07884534,3.81109205 6.66856436,3.81109205 L12.3314356,3.81109205 C13.9213663,3.81109205 15.2145213,5.10445866 15.2145213,6.69417768 L15.2145213,12.357049 Z" id="Shape" fill-rule="nonzero"></path>
                </g>
            </g>
        </g>
    </g>
</svg>