<svg width="46" height="46" viewBox="0 0 46 46" fill="none" xmlns="http://www.w3.org/2000/svg">
<g filter="url(#filter0_d)">
<path fill-rule="evenodd" clip-rule="evenodd" d="M23 42C34.0457 42 43 33.0457 43 22C43 10.9543 34.0457 2 23 2C11.9543 2 3 10.9543 3 22C3 33.0457 11.9543 42 23 42Z" fill="#FAFAFA"/>
<path fill-rule="evenodd" clip-rule="evenodd" d="M23 42C34.0457 42 43 33.0457 43 22C43 10.9543 34.0457 2 23 2C11.9543 2 3 10.9543 3 22C3 33.0457 11.9543 42 23 42Z" stroke="#D8D8D8"/>
</g>
<path fill-rule="evenodd" clip-rule="evenodd" d="M19.4328 12.8727C19.1232 12.5909 18.6407 12.5992 18.3415 12.8915C18.0422 13.1837 18.0337 13.6549 18.3222 13.9573L26.7036 22.1433L18.3222 30.0427C18.0337 30.3451 18.0422 30.8163 18.3415 31.1086C18.6407 31.4008 19.1232 31.4091 19.4328 31.1274L28.778 22.1433L19.4328 12.8727Z" fill="#808182"/>
<defs>
<filter id="filter0_d" x="0.5" y="0.5" width="45" height="45" filterUnits="userSpaceOnUse" color-interpolation-filters="sRGB">
<feFlood flood-opacity="0" result="BackgroundImageFix"/>
<feColorMatrix in="SourceAlpha" type="matrix" values="0 0 0 0 0 0 0 0 0 0 0 0 0 0 0 0 0 0 127 0"/>
<feOffset dy="1"/>
<feGaussianBlur stdDeviation="1"/>
<feColorMatrix type="matrix" values="0 0 0 0 0.315331 0 0 0 0 0.314489 0 0 0 0 0.314489 0 0 0 0.5 0"/>
<feBlend mode="normal" in2="BackgroundImageFix" result="effect1_dropShadow"/>
<feBlend mode="normal" in="SourceGraphic" in2="effect1_dropShadow" result="shape"/>
</filter>
</defs>
</svg>
