<svg width="19" height="19" viewBox="0 0 19 19" fill="none" xmlns="http://www.w3.org/2000/svg">
<path fill-rule="evenodd" clip-rule="evenodd" d="M9.27794 1.32558L11.9291 7.06977H17.6733L13.6965 11.0465L14.5803 17.2326L9.27794 13.6226L3.97562 17.2326L5.3012 11.0465L1.32445 7.06977H6.62678L9.27794 1.32558ZM9.27794 0C8.76181 0.000442642 8.29286 0.300432 8.07608 0.768837L5.77841 5.74419H1.32445C0.788669 5.74466 0.305849 6.06762 0.100877 6.56265C-0.104095 7.05767 0.00908789 7.62742 0.38771 8.00651L3.8519 11.4707L2.67213 16.9498C2.55854 17.4794 2.77864 18.0249 3.228 18.3274C3.67736 18.6299 4.26556 18.6285 4.71352 18.324L9.27352 15.2309L13.8247 18.324C14.2585 18.6197 14.8259 18.6315 15.2717 18.3541C15.7174 18.0767 15.9575 17.5624 15.8838 17.0426L15.0972 11.5105L18.6056 8.00209C18.9806 7.62317 19.092 7.05652 18.8886 6.56381C18.6851 6.0711 18.2063 5.74818 17.6733 5.74419H12.7775L10.4798 0.768837C10.263 0.300432 9.79408 0.000442642 9.27794 0Z" fill="white"/>
</svg>
