<?xml version="1.0" encoding="UTF-8"?>
<svg width="34px" height="22px" viewBox="0 0 34 22" version="1.1" xmlns="http://www.w3.org/2000/svg" xmlns:xlink="http://www.w3.org/1999/xlink">
    <!-- Generator: Sketch 52.5 (67469) - http://www.bohemiancoding.com/sketch -->
    <title>Lancha</title>
    <desc>Created with Sketch.</desc>
    <g id="Symbols" stroke="none" stroke-width="1" fill="none" fill-rule="evenodd">
        <g id="Menú/Lateral-Dashboard-Crear-Proyecto" transform="translate(-34.000000, -139.000000)" fill="#414140" fill-rule="nonzero" stroke="#414140" stroke-width="0.3">
            <g id="Menú-Lateral">
                <g id="Mis-Embarcaciones" transform="translate(0.000000, 120.000000)">
                    <g id="Lancha" transform="translate(51.000000, 30.000000) scale(-1, 1) translate(-51.000000, -30.000000) translate(35.000000, 20.000000)">
                        <path d="M31.0839844,16.1872361 L31.8432618,13.2066054 C31.9140625,12.9284828 31.8554688,12.6386889 31.6826172,12.4112242 C31.5097656,12.1840079 31.2485351,12.0536379 30.9658203,12.0536379 L22.3354493,12.0536379 C22.5913086,10.634219 23.1645508,9.29128383 24.0102539,8.14179291 C24.4780274,7.50633226 25.2231445,7.12689347 26.003418,7.12689347 L28.5004883,7.12689347 C29.284668,7.12689347 29.9438476,6.46362055 29.9052734,5.62801093 C29.8698731,4.86441518 29.2412109,4.26620313 28.4741211,4.26620313 L27.0361328,4.26620313 L29.6303711,1.62776262 C29.8994141,1.35410974 29.9790039,0.946113701 29.8334961,0.588527408 C29.6877441,0.231189487 29.3476562,0 28.9672851,0 L25.8469238,0 C25.4711914,0 25.1181641,0.148745981 24.8525391,0.418922291 L21.0700684,4.26620313 L11.810791,4.26620313 C10.7697754,4.26620313 9.78051756,4.77626021 9.16479494,5.63024582 L7.18359375,8.37794881 L7.18359375,8.08045692 C7.18359375,7.81723367 6.97387694,7.60367519 6.71484375,7.60367519 L0.46875,7.60367519 C0.209716813,7.60367519 0,7.81723367 0,8.08045692 C0,8.34392847 0.209716812,8.55723864 0.46875,8.55723864 L1.09472656,8.55723864 L1.09472656,9.51080209 L0.938476562,9.51080209 C0.583007812,9.51080209 0.262695312,9.71119942 0.10205075,10.0335237 C-0.05859375,10.355848 -0.027587875,10.7370251 0.182373062,11.0283089 L3.701416,15.9091135 C5.54833987,18.470822 8.51586913,20 11.638916,20 L29.0244141,20 C29.6242676,20 30.1533203,19.6138565 30.3500976,19.0466849 L31.0625,19.0466849 C31.5793457,19.0466849 32,18.6188229 32,18.0931214 L32,17.139558 C32,16.6210578 31.5910644,16.1989074 31.0839844,16.1872361 Z M25.5153809,1.0931214 C25.6040039,1.00322821 25.7216797,0.953563447 25.8469238,0.953563447 L28.967041,0.954060063 L25.7102051,4.26620313 L22.3959961,4.26620313 L25.5153809,1.0931214 Z M9.92089844,6.19394091 C10.3605957,5.58405763 11.0671387,5.21976658 11.810791,5.21976658 L28.4738769,5.21976658 C28.7351074,5.21976658 28.9570312,5.4231438 28.9685059,5.67295752 C28.9812012,5.947852 28.7670899,6.17333002 28.5004882,6.17333002 L26.003418,6.17333002 C24.9291992,6.17333002 23.9035644,6.69555502 23.2597656,7.57039983 C22.2929687,8.88403278 21.6496582,10.426372 21.3840332,12.0536379 L19.2766113,12.0536379 C18.9123535,12.0536379 18.5700684,11.9128383 18.3073731,11.6578098 L20.6201172,8.44921776 C21.300293,7.51080212 20.6381836,6.17333002 19.4907226,6.17333002 L15.125,6.17333002 C15.001709,6.17333002 14.8813476,6.22423639 14.7937012,6.31313635 C14.7062988,6.40153962 14.65625,6.52495654 14.65625,6.65011175 L14.65625,8.08045692 C14.65625,8.34368016 14.8662109,8.55723864 15.125,8.55723864 C15.3837891,8.55723864 15.59375,8.34368016 15.59375,8.08045692 L15.59375,7.12689347 L19.486084,7.12689347 C19.6230469,7.12813507 19.7304687,7.17382665 19.8237305,7.27116959 C19.9074707,7.36081447 19.9567871,7.48621804 19.9567871,7.60764837 C19.9555664,7.70995778 19.9262695,7.79836106 19.8642578,7.88601935 L17.6354981,10.9769059 L16.8806152,10.2090887 C16.4379882,9.75887759 15.8493652,9.51080209 15.2233887,9.51080209 L13.71875,9.51080209 L13.71875,6.65011175 C13.71875,6.52495654 13.6687012,6.40153962 13.5812988,6.31313635 C13.4943847,6.22423639 13.3737793,6.17333002 13.25,6.17333002 L11.8105469,6.17333002 C11.3642578,6.17333002 10.9406738,6.39210329 10.6767578,6.75763594 L9.65991212,8.16761859 C9.50708006,8.38092876 9.55175781,8.67792398 9.7612305,8.83436802 C9.96997069,8.99081205 10.2636719,8.9426372 10.4162597,8.73156193 C10.4167481,8.73156193 10.4167481,8.730817 10.4167481,8.730817 L11.4331055,7.32157934 C11.5205078,7.19940402 11.6623535,7.12689347 11.8105469,7.12689347 L12.78125,7.12689347 L12.78125,9.51080209 L7.52929687,9.51080209 L9.92089844,6.19394091 Z M6.24609375,9.51080209 L4.60791013,9.51080209 L4.60791013,8.55723864 L6.24609375,8.55723864 L6.24609375,9.51080209 Z M2.03222656,8.55723864 L3.67041013,8.55723864 L3.67041013,9.51080209 L2.03222656,9.51080209 L2.03222656,8.55723864 Z M29.0244141,19.0464366 L11.638916,19.0464366 C8.81323244,19.0464366 6.128418,17.6627763 4.45727538,15.3451701 L0.938476562,10.4643655 L15.2233887,10.4643655 C15.5991211,10.4643655 15.9521484,10.6133598 16.2177734,10.8835361 L17.6193848,12.3091631 C18.0622559,12.7593743 18.6506348,13.0072014 19.2766113,13.0072014 L21.7883301,13.0072014 C21.7885743,13.0072014 21.7888184,13.0074497 21.7893066,13.0074497 C21.7897949,13.0074497 21.7902832,13.0072014 21.7905274,13.0072014 L30.9255371,13.0072014 L29.4782715,18.6893469 C29.4248047,18.8996772 29.2380371,19.0464366 29.0244141,19.0464366 Z M31.0625,18.0931214 L30.5986328,18.0931214 L30.8415528,17.139558 L31.0625,17.139558 L31.0625,18.0931214 Z" id="Shape"></path>
                    </g>
                </g>
            </g>
        </g>
    </g>
</svg>