<svg width="28" height="19" viewBox="0 0 28 19" fill="none" xmlns="http://www.w3.org/2000/svg">
<path fill-rule="evenodd" clip-rule="evenodd" d="M25.2535 7.30079V7.33071C26.6 7.48031 27.8866 8.37795 27.9764 10.4425V13.9433C27.9764 14.5417 27.4976 15.0205 26.8992 15.0205H26.5402V17.8331C26.5402 18.4315 26.0614 18.9102 25.463 18.9102H24.4457C23.8472 18.9102 23.3685 18.4315 23.3685 17.8331V15.0205H4.60787V17.8331C4.60787 18.4315 4.12913 18.9102 3.53071 18.9102H2.51339C1.91496 18.9102 1.43622 18.4315 1.43622 17.8331V15.0504H1.07717C0.47874 15.0504 0 14.5717 0 13.9732V10.4425C0 8.37795 1.28661 7.48031 2.63307 7.33071V7.30079V2.78268C2.63307 0.71811 4.06929 0 5.41575 0H22.4709C23.8173 0 25.2535 0.748032 25.2535 2.78268V7.30079ZM3.71024 2.78268H3.65039V7.30079H4.6378V4.72756C4.6378 4.12913 5.11654 3.65039 5.71496 3.65039H12.2976C12.8961 3.65039 13.3748 4.12913 13.3748 4.72756V7.30079H14.6315V4.72756C14.6315 4.12913 15.1102 3.65039 15.7087 3.65039H22.2913C22.8898 3.65039 23.3685 4.12913 23.3685 4.72756V7.30079H24.1764V2.78268C24.1764 1.37638 23.2488 1.07717 22.4709 1.07717H5.41575C4.6378 1.07717 3.71024 1.37638 3.71024 2.78268ZM22.2913 4.72756V7.30079H15.7087V4.72756H22.2913ZM12.3575 7.30079V4.72756H5.7748V7.30079H12.3575ZM3.50079 17.8331H2.48346V15.0205H3.50079V17.8331ZM24.3858 17.8331H25.4031V15.0205H24.3858V17.8331ZM26.8094 13.9732H25.4031H24.3858H3.50079H2.48346H1.04724V12.3874H26.8094V13.9732ZM1.04724 11.3102H26.8094V10.4425C26.8094 8.64724 25.5228 8.37795 24.7449 8.37795H24.1764H22.2913H15.7087H12.3276H5.74488H3.68032H3.11181C2.36378 8.37795 1.04724 8.64724 1.04724 10.4425V11.3102Z" fill="#808182"/>
</svg>
