<svg width="45" height="45" viewBox="0 0 45 45" fill="none" xmlns="http://www.w3.org/2000/svg">
<path fill-rule="evenodd" clip-rule="evenodd" d="M22.7202 0.399994C10.57 0.399994 0.720215 10.2497 0.720215 22.4C0.720215 34.5503 10.57 44.4 22.7202 44.4C34.8705 44.4 44.7202 34.5503 44.7202 22.4C44.7202 10.2497 34.8705 0.399994 22.7202 0.399994V0.399994ZM22.7202 41.4C12.2268 41.4 3.72021 32.8934 3.72021 22.4C3.72021 11.9066 12.2268 3.39999 22.7202 3.39999C33.2136 3.39999 41.7202 11.9066 41.7202 22.4C41.7202 27.4391 39.7184 32.2718 36.1552 35.835C32.5921 39.3982 27.7593 41.4 22.7202 41.4Z" fill="#CDA555"/>
<path fill-rule="evenodd" clip-rule="evenodd" d="M26.4198 15.65C25.0652 15.8084 23.7828 16.3456 22.7198 17.2C21.6537 16.3444 20.3677 15.8071 19.0098 15.65C17.0641 15.6138 15.2406 16.5957 14.1998 18.24C13.2294 19.7952 13.1421 21.7444 13.9698 23.38C14.7598 24.94 19.6798 29.09 21.7698 30.81C22.3242 31.2677 23.1254 31.2677 23.6798 30.81C25.7598 29.1 30.6798 24.94 31.4698 23.37C32.2913 21.7274 32.1965 19.7753 31.2198 18.22C30.1872 16.5744 28.3618 15.597 26.4198 15.65ZM28.7798 22.03C28.3798 22.74 25.4898 25.37 22.7198 27.7C20.5417 25.9828 18.5113 24.0862 16.6498 22.03C16.2987 21.3245 16.3404 20.4871 16.7598 19.82C17.2522 19.0567 18.1123 18.6114 19.0198 18.65C20.015 18.9593 20.9277 19.4891 21.6898 20.2C22.2706 20.7588 23.1891 20.7588 23.7698 20.2C24.529 19.4904 25.4381 18.9607 26.4298 18.65C27.3346 18.6003 28.1955 19.0441 28.6798 19.81C29.0991 20.4808 29.1408 21.321 28.7898 22.03H28.7798Z" fill="#CDA555"/>
</svg>
