<svg width="29" height="29" viewBox="0 0 29 29" fill="none" xmlns="http://www.w3.org/2000/svg">
<path fill-rule="evenodd" clip-rule="evenodd" d="M14.5 28C21.9558 28 28 21.9558 28 14.5C28 7.04416 21.9558 1 14.5 1C7.04416 1 1 7.04416 1 14.5C1 21.9558 7.04416 28 14.5 28Z" fill="#55CD5A" stroke="#55CD5A"/>
<path d="M13.0681 16.0522L10.3786 13.3807C10.2868 13.289 10.1375 13.2908 10.0476 13.3807L8.84225 14.5933C8.7505 14.685 8.7505 14.8343 8.84225 14.9261C10.1987 16.2735 11.5533 17.621 12.9098 18.9666C13.0015 19.0583 13.1508 19.0583 13.2426 18.9666L20.5698 11.6051C20.6598 11.5134 20.6598 11.3641 20.568 11.2723L19.3555 10.0688C19.2638 9.97706 19.1145 9.97706 19.0227 10.0688L13.0681 16.0522Z" fill="white" stroke="white"/>
</svg>
