<?xml version="1.0" encoding="UTF-8"?>
<svg width="23px" height="18px" viewBox="0 0 23 18" version="1.1" xmlns="http://www.w3.org/2000/svg" xmlns:xlink="http://www.w3.org/1999/xlink">
    <!-- Generator: Sketch 52.5 (67469) - http://www.bohemiancoding.com/sketch -->
    <title>Mail</title>
    <desc>Created with Sketch.</desc>
    <g id="Symbols" stroke="none" stroke-width="1" fill="none" fill-rule="evenodd">
        <g id="Menú/Lateral-Dashboard-Crear-Proyecto" transform="translate(-40.000000, -261.000000)" fill="#414140">
            <g id="Menú-Lateral">
                <g id="Mensajes" transform="translate(0.000000, 240.000000)">
                    <g id="Mail" transform="translate(40.000000, 21.000000)">
                        <path d="M21.456,0.205714286 L1.91314286,0.205714286 C1.06104639,0.205714286 0.370285714,0.896474957 0.370285714,1.74857143 L0.370285714,16.1485714 C0.370285714,17.0006679 1.06104639,17.6914286 1.91314286,17.6914286 L21.456,17.6914286 C22.3080965,17.6914286 22.9988571,17.0006679 22.9988571,16.1485714 L22.9988571,1.74857143 C22.9988571,0.896474957 22.3080965,0.205714286 21.456,0.205714286 Z M21.456,15.0582857 L17.3725714,10.9748571 C17.0686185,10.6916309 16.5949614,10.699988 16.301189,10.9937604 C16.0074166,11.2875329 15.9990595,11.76119 16.2822857,12.0651429 L20.3657143,16.1485714 L3.00342857,16.1485714 L7.08685714,12.0651429 C7.3700834,11.76119 7.36172627,11.2875329 7.06795385,10.9937604 C6.77418143,10.699988 6.30052432,10.6916309 5.99657143,10.9748571 L1.91314286,15.0582857 L1.91314286,5.15828571 L11.1702857,12.1371429 C11.4445714,12.3428571 11.8217143,12.3428571 12.096,12.1371429 L21.4457143,5.15314286 L21.456,15.0582857 Z M21.456,1.74857143 L21.456,3.22971429 L11.6485714,10.5582857 L1.91314286,3.22971429 L1.91314286,1.74857143 L21.456,1.74857143 Z" id="Shape"></path>
                    </g>
                </g>
            </g>
        </g>
    </g>
</svg>