<svg width="24" height="23" viewBox="0 0 24 23" fill="none" xmlns="http://www.w3.org/2000/svg">
<path fill-rule="evenodd" clip-rule="evenodd" d="M13.2854 11.5265L22.708 1.91846C23.1134 1.47624 23.0953 0.792285 22.6671 0.372102C22.2389 -0.0480809 21.5548 -0.0532576 21.1203 0.360398L11.7125 9.95363L1.91897 0.345559C1.63859 0.0510533 1.21991 -0.0670915 0.826936 0.0374053C0.433964 0.141902 0.129266 0.452404 0.0322018 0.847277C-0.0648625 1.24215 0.0611602 1.65853 0.360903 1.9333L10.1396 11.5265L0.360903 21.1198C-0.0527522 21.5543 -0.0475754 22.2384 0.372607 22.6666C0.79279 23.0948 1.47675 23.1129 1.91897 22.7075L11.7125 13.0994L21.1203 22.6927C21.5548 23.1063 22.2389 23.1011 22.6671 22.681C23.0953 22.2608 23.1134 21.5768 22.708 21.1346L13.2854 11.5265Z" fill="white"/>
</svg>
