<svg width="19" height="11" viewBox="0 0 19 11" fill="none" xmlns="http://www.w3.org/2000/svg">
<path fill-rule="evenodd" clip-rule="evenodd" d="M18.0118 5.23362C18.0734 4.93249 17.9852 4.61991 17.7757 4.39722L13.8939 0.309564C13.6658 0.0549778 13.319 -0.0538481 12.9887 0.0255138C12.6584 0.104876 12.3969 0.359862 12.3061 0.691062C12.2154 1.02226 12.3097 1.37724 12.5523 1.61761L14.9187 4.13309H0.931643C0.417111 4.13309 0 4.55543 0 5.0764C0 5.59737 0.417111 6.0197 0.931643 6.0197H15.0367L12.4219 8.44714C12.1234 8.65574 11.9716 9.02079 12.0328 9.38276C12.094 9.74473 12.3572 10.0378 12.7073 10.1339C13.0573 10.23 13.4306 10.1117 13.6641 9.83066L17.7012 6.05744C17.9357 5.85373 18.0526 5.54374 18.0118 5.23362Z" fill="#808182"/>
</svg>
