<?xml version="1.0" encoding="UTF-8"?>
<svg width="22px" height="20px" viewBox="0 0 22 20" version="1.1" xmlns="http://www.w3.org/2000/svg" xmlns:xlink="http://www.w3.org/1999/xlink">
    <!-- Generator: Sketch 52.5 (67469) - http://www.bohemiancoding.com/sketch -->
    <title>Home</title>
    <desc>Created with Sketch.</desc>
    <g id="Symbols" stroke="none" stroke-width="1" fill="none" fill-rule="evenodd">
        <g id="Menú/Header-Dashboard" transform="translate(-351.000000, -31.000000)" fill="#414140">
            <g id="Home" transform="translate(351.500000, 31.000000)">
                <path d="M20.7238095,8.14761905 L11.7428571,0.528571429 C11.209866,0.0767099427 10.4282293,0.0767099427 9.8952381,0.528571429 L0.914285714,8.14761905 C0.468298018,8.52761089 0.299556729,9.14140368 0.488616896,9.69598017 C0.677677062,10.2505567 1.1862022,10.6334632 1.77142857,10.6619048 L1.77142857,18.2809524 C1.77142857,19.0699306 2.41102179,19.7095238 3.2,19.7095238 L18.4380952,19.7095238 C19.2270735,19.7095238 19.8666667,19.0699306 19.8666667,18.2809524 L19.8666667,10.6666667 C20.451893,10.6382251 20.9604182,10.2553186 21.1494783,9.70074208 C21.3385385,9.14616559 21.1697972,8.5323728 20.7238095,8.15238095 L20.7238095,8.14761905 Z M10.3428571,18.2857143 L9.39047619,18.2857143 L9.39047619,14 L12.247619,14 L12.247619,18.2857143 L10.3428571,18.2857143 Z M18.4380952,9.23809524 L18.4380952,18.2857143 L13.6761905,18.2857143 L13.6761905,14 C13.6761905,13.2110218 13.0365973,12.5714286 12.247619,12.5714286 L9.39047619,12.5714286 C8.60149798,12.5714286 7.96190476,13.2110218 7.96190476,14 L7.96190476,18.2857143 L3.2,18.2857143 L3.2,9.23809524 L1.83809524,9.23809524 L10.8190476,1.61904762 L19.8,9.23809524 L18.4380952,9.23809524 Z" id="Shape"></path>
            </g>
        </g>
    </g>
</svg>