<svg width="21" height="16" viewBox="0 0 21 16" fill="none" xmlns="http://www.w3.org/2000/svg">
<path fill-rule="evenodd" clip-rule="evenodd" d="M20.5789 9.83552C20.5789 10.0528 20.4051 10.2289 20.1907 10.2289C18.5105 10.2289 15.9195 8.87714 15.9195 7.08158V5.90131H8.15387V7.3826C8.5414 7.73107 8.80284 8.20075 8.89707 8.71712C11.2459 9.07404 13.0313 11.0421 13.1853 13.4435C13.7258 13.627 14.0549 14.1806 13.9626 14.7506C13.8701 15.3206 13.3832 15.7384 12.8133 15.7368H1.16476C0.594851 15.7384 0.107979 15.3206 0.0154585 14.7506C-0.0768726 14.1806 0.252258 13.627 0.792784 13.4435C0.946733 11.0421 2.73212 9.07404 5.08097 8.71712C5.17519 8.20075 5.43664 7.73107 5.82417 7.3826V5.50789C5.82549 4.42195 6.69382 3.54213 7.76559 3.54079H15.9195V3.14737C15.9195 1.35181 18.5105 0 20.1907 0C20.4051 0 20.5789 0.176156 20.5789 0.393421V9.83552ZM19.8024 0.814696C18.4868 0.993734 16.6961 2.00649 16.6961 3.14737V7.08158C16.6961 8.22246 18.4868 9.23521 19.8024 9.41425V0.814696ZM8.08391 8.65526H5.89413C6.02532 8.25589 6.32109 7.86842 6.60073 7.86842H7.3773C7.65809 7.86842 7.95271 8.25589 8.08391 8.65526ZM1.16476 14.95H12.8133C13.0277 14.95 13.2016 14.7738 13.2016 14.5566C13.2016 14.3393 13.0277 14.1632 12.8133 14.1632H1.16476C0.950335 14.1632 0.776479 14.3393 0.776479 14.5566C0.776479 14.7738 0.950335 14.95 1.16476 14.95ZM12.4075 13.3763H1.57049C1.77392 11.1491 3.61675 9.44479 5.82417 9.4421H8.15387C10.3613 9.44479 12.2041 11.1491 12.4075 13.3763ZM7.3773 5.50789C7.3773 5.29063 7.55116 5.11447 7.76559 5.11447H15.9195V4.32763H7.76559C7.1223 4.32763 6.60073 4.8561 6.60073 5.50789V7.08158H7.3773V5.50789Z" fill="#808182"/>
</svg>
