<svg width="32" height="32" viewBox="0 0 32 32" fill="none" xmlns="http://www.w3.org/2000/svg">
<path d="M16 1C7.71573 1 1 7.71573 1 16C1 24.2843 7.71573 31 16 31C24.2843 31 31 24.2843 31 16C31 7.71573 24.2843 1 16 1Z" stroke="#CDA555"/>
<path fill-rule="evenodd" clip-rule="evenodd" d="M18.1328 22.8566C18.336 23.0528 18.6526 23.047 18.849 22.8435C19.0453 22.6399 19.0509 22.3118 18.8616 22.1012L13.3613 16.4002L18.8616 10.8988C19.0509 10.6882 19.0453 10.3601 18.849 10.1565C18.6526 9.95301 18.336 9.94722 18.1328 10.1434L12 16.4002L18.1328 22.8566Z" fill="#CDA555"/>
</svg>
