<svg width="20" height="21" viewBox="0 0 20 21" fill="none" xmlns="http://www.w3.org/2000/svg">
<path fill-rule="evenodd" clip-rule="evenodd" d="M16.2517 4.30446H16.7892C18.4928 4.30446 19.88 5.6972 19.88 7.40767V12.4128C19.88 14.1233 18.4928 15.5161 16.7892 15.5161H16.2473V19.4506C16.2473 20.3036 15.5537 21 14.7041 21H5.11955C4.26991 21 3.57632 20.3036 3.57632 19.4506V15.5161H3.09081C1.38718 15.5161 0 14.1233 0 12.4128V7.40767C0 5.6972 1.38718 4.30446 3.09081 4.30446H3.58065V3.10321C3.58065 1.39275 4.96783 0 6.67146 0H13.1609C14.8645 0 16.2517 1.39275 16.2517 3.10321V4.30446ZM6.66713 1.17513C5.6094 1.17513 4.74675 2.04124 4.74675 3.10321V4.30446H15.0726V3.10321C15.0726 2.04124 14.2099 1.17513 13.1522 1.17513H6.66713ZM15.0769 19.4593C15.0769 19.6638 14.9078 19.8336 14.7041 19.8336H5.11955C4.91581 19.8336 4.74675 19.6638 4.74675 19.4593V12.9699H15.0769V19.4593ZM16.7892 14.3453C17.8469 14.3453 18.7096 13.4792 18.7096 12.4172V7.41202C18.7096 6.35005 17.8469 5.48394 16.7892 5.48394H3.09081C2.03308 5.48394 1.17043 6.35005 1.17043 7.41202V12.4172C1.17043 13.4792 2.03308 14.3453 3.09081 14.3453H3.58065V12.9699H2.718C2.39288 12.9699 2.13279 12.7088 2.13279 12.3824C2.13279 12.056 2.39288 11.7948 2.718 11.7948H17.0233C17.3484 11.7948 17.6085 12.056 17.6085 12.3824C17.6085 12.7088 17.3484 12.9699 17.0233 12.9699H16.2517V14.3453H16.7892Z" fill="#808182"/>
<path fill-rule="evenodd" clip-rule="evenodd" d="M6.18875 15.6801H13.6905C14.0178 15.6801 14.2796 15.4312 14.2796 15.1201C14.2796 14.8089 14.0178 14.5601 13.6905 14.5601H6.18875C5.86145 14.5601 5.59961 14.8089 5.59961 15.1201C5.59961 15.4312 5.86581 15.6801 6.18875 15.6801Z" fill="#808182"/>
<path fill-rule="evenodd" clip-rule="evenodd" d="M13.6948 17.0801H6.18875C5.86145 17.0801 5.59961 17.329 5.59961 17.6401C5.59961 17.9512 5.86145 18.2001 6.18875 18.2001H13.6905C14.0178 18.2001 14.2796 17.9512 14.2796 17.6401C14.2796 17.329 14.0178 17.0801 13.6948 17.0801Z" fill="#808182"/>
<path fill-rule="evenodd" clip-rule="evenodd" d="M16.8033 6.72021H15.675C15.3662 6.72021 15.1191 6.9691 15.1191 7.28021C15.1191 7.59133 15.3662 7.84021 15.675 7.84021H16.8033C17.1121 7.84021 17.3591 7.59133 17.3591 7.28021C17.3591 6.9691 17.1121 6.72021 16.8033 6.72021Z" fill="#808182"/>
</svg>
