<svg width="32" height="32" viewBox="0 0 32 32" fill="none" xmlns="http://www.w3.org/2000/svg">
<path d="M16 31C24.2843 31 31 24.2843 31 16C31 7.71573 24.2843 1 16 1C7.71573 1 1 7.71573 1 16C1 24.2843 7.71573 31 16 31Z" stroke="#CDA555"/>
<path fill-rule="evenodd" clip-rule="evenodd" d="M14.8672 10.1434C14.664 9.94722 14.3474 9.95301 14.151 10.1565C13.9547 10.3601 13.9491 10.6882 14.1384 10.8988L19.6387 16.5998L14.1384 22.1012C13.9491 22.3118 13.9547 22.6399 14.151 22.8435C14.3474 23.047 14.664 23.0528 14.8672 22.8566L21 16.5998L14.8672 10.1434Z" fill="#CDA555"/>
</svg>
