<svg width="13" height="15" viewBox="0 0 13 15" fill="none" xmlns="http://www.w3.org/2000/svg">
<path fill-rule="evenodd" clip-rule="evenodd" d="M12.5 2.24452H9.64C9.14653 0.893788 7.89615 0 6.5 0C5.10385 0 3.85347 0.893788 3.36 2.24452H0.5C0.223858 2.24452 0 2.47604 0 2.76164C0 3.04723 0.223858 3.27875 0.5 3.27875H0.833333V13.9658C0.833333 14.537 1.28105 15 1.83333 15H10.8333C11.3856 15 11.8333 14.537 11.8333 13.9658V3.27875H12.5C12.7761 3.27875 13 3.04723 13 2.76164C13 2.47604 12.7761 2.24452 12.5 2.24452ZM6.5 1.03792C7.41 1.03792 8.2 1.38267 8.59 2.24452H4.41C4.8 1.37922 5.59 1.03792 6.5 1.03792ZM10.8333 13.9658H9.5V8.10515C9.5 7.81955 9.27614 7.58803 9 7.58803C8.72386 7.58803 8.5 7.81955 8.5 8.10515V13.9658H6.83333V6.03669C6.83333 5.7511 6.60948 5.51958 6.33333 5.51958C6.05719 5.51958 5.83333 5.7511 5.83333 6.03669V13.9658H4.16667V8.10515C4.16667 7.81955 3.94281 7.58803 3.66667 7.58803C3.39052 7.58803 3.16667 7.81955 3.16667 8.10515V13.9658H1.83333V3.27875H10.8333V13.9658Z" fill="#808182"/>
</svg>
