<svg width="16" height="10" viewBox="0 0 16 10" fill="none" xmlns="http://www.w3.org/2000/svg">
<path fill-rule="evenodd" clip-rule="evenodd" d="M0.608672 1.18181C0.608672 0.830348 0.900703 0.545434 1.26086 0.545434C1.62105 0.545434 1.91305 0.830386 1.91305 1.18181V8.81819C1.91305 9.16965 1.62105 9.45457 1.26086 9.45457C0.900664 9.45457 0.608672 9.16961 0.608672 8.81819V1.18181ZM5.82605 1.18181C5.82605 0.830348 6.11809 0.545434 6.47824 0.545434C6.83844 0.545434 7.13043 0.830386 7.13043 1.18181V6.27272C7.13043 6.62418 6.8384 6.90909 6.47824 6.90909C6.11805 6.90909 5.82605 6.62414 5.82605 6.27272V1.18181ZM12.1304 0.545434C11.7703 0.545434 11.4782 0.830348 11.4782 1.18181V6.27272C11.4782 6.62414 11.7702 6.90909 12.1304 6.90909C12.4906 6.90909 12.7826 6.62418 12.7826 6.27272V1.18181C12.7826 0.830386 12.4906 0.545434 12.1304 0.545434ZM14.087 1.18181C14.087 0.830348 14.379 0.545434 14.7391 0.545434C15.0993 0.545434 15.3913 0.830386 15.3913 1.18181V8.81819C15.3913 9.16965 15.0993 9.45457 14.7391 9.45457C14.3789 9.45457 14.087 9.16961 14.087 8.81819V1.18181ZM6.47824 9.45457C6.83844 9.45457 7.13043 9.16965 7.13043 8.81819C7.13043 8.46673 6.83844 8.18181 6.47824 8.18181C6.11805 8.18181 5.82605 8.46673 5.82605 8.81819C5.82605 9.16965 6.11805 9.45457 6.47824 9.45457ZM8.43477 1.18181C8.43477 0.830348 8.7268 0.545434 9.08695 0.545434C9.44715 0.545434 9.73914 0.830386 9.73914 1.18181V6.27272C9.73914 6.62418 9.44711 6.90909 9.08695 6.90909C8.72676 6.90909 8.43477 6.62414 8.43477 6.27272V1.18181ZM9.08695 9.45457C9.44715 9.45457 9.73914 9.16965 9.73914 8.81819C9.73914 8.46673 9.44715 8.18181 9.08695 8.18181C8.72676 8.18181 8.43477 8.46673 8.43477 8.81819C8.43477 9.16965 8.72676 9.45457 9.08695 9.45457ZM3.21738 1.18181C3.21738 0.830348 3.50941 0.545434 3.86957 0.545434C4.22973 0.545434 4.52176 0.830386 4.52176 1.18181V6.27272C4.52176 6.62418 4.22977 6.90909 3.86957 6.90909C3.50938 6.90909 3.21738 6.62414 3.21738 6.27272V1.18181ZM3.86957 9.45457C4.22976 9.45457 4.52176 9.16965 4.52176 8.81819C4.52176 8.46673 4.22976 8.18181 3.86957 8.18181C3.50938 8.18181 3.21738 8.46673 3.21738 8.81819C3.21738 9.16965 3.50938 9.45457 3.86957 9.45457ZM12.7826 8.81819C12.7826 9.16965 12.4906 9.45457 12.1304 9.45457C11.7702 9.45457 11.4782 9.16965 11.4782 8.81819C11.4782 8.46673 11.7702 8.18181 12.1304 8.18181C12.4906 8.18181 12.7826 8.46673 12.7826 8.81819Z" fill="#808182"/>
</svg>
