<svg width="25" height="25" viewBox="0 0 25 25" fill="none" xmlns="http://www.w3.org/2000/svg">
<path fill-rule="evenodd" clip-rule="evenodd" d="M22.8853 11.823H24V17.5079H22.8853V22.0038C22.8853 23.2331 21.8852 24.2332 20.6559 24.2332H3.22941C2.00009 24.2332 1 23.2331 1 22.0038V6.69521C1 5.46589 2.00009 4.4658 3.22941 4.4658H9.85255L15.7819 1.16852C15.9803 1.05842 16.2051 1 16.4316 1C16.9176 1 17.3657 1.2635 17.6012 1.68803L19.1461 4.46587H20.6559C21.8852 4.46587 22.8853 5.46596 22.8853 6.69528V11.823ZM21.9788 6.54674C21.9035 5.87925 21.3425 5.35759 20.6559 5.35759H19.6423L20.3032 6.54674H21.9788ZM16.2157 1.94792C16.4248 1.83067 16.7062 1.91267 16.8217 2.12095L19.283 6.54632H7.94596L16.2157 1.94792ZM20.6558 23.3415C21.3933 23.3415 21.9935 22.7413 21.9935 22.0038V17.5084H18.7328C17.2186 17.5084 15.9862 16.276 15.9862 14.7618V14.57C15.9862 13.0558 17.2185 11.8234 18.7328 11.8234H21.9935V7.4386H20.799H4.50687H3.5081C3.26153 7.4386 3.06221 7.23886 3.06221 6.9927C3.06221 6.74655 3.26153 6.54681 3.5081 6.54681H6.11069L8.24915 5.35759H3.22941C2.49191 5.35759 1.89172 5.95778 1.89172 6.69528V22.0038C1.89172 22.7413 2.49191 23.3415 3.22941 23.3415H20.6558ZM23.1082 16.6162H22.8853H18.7328C17.7099 16.6162 16.8779 15.7842 16.8779 14.7613V14.5695C16.8779 13.5467 17.7099 12.7146 18.7328 12.7146H22.8853H23.1082V16.6162ZM19.114 15.6865C19.6579 15.6865 20.0985 15.246 20.0985 14.702C20.0985 14.1585 19.658 13.7175 19.114 13.7176C18.5701 13.7176 18.1295 14.1581 18.1295 14.702C18.1295 15.246 18.57 15.6865 19.114 15.6865Z" fill="white"/>
<path d="M24 11.823H24.15V11.673H24V11.823ZM22.8853 11.823H22.7353V11.973H22.8853V11.823ZM24 17.5079V17.6579H24.15V17.5079H24ZM22.8853 17.5079V17.3579H22.7353V17.5079H22.8853ZM9.85255 4.4658V4.6158H9.89145L9.92545 4.59689L9.85255 4.4658ZM15.7819 1.16852L15.7091 1.03736L15.709 1.03743L15.7819 1.16852ZM17.6012 1.68803L17.47 1.76078L17.4701 1.76094L17.6012 1.68803ZM19.1461 4.46587L19.0151 4.53878L19.0579 4.61587H19.1461V4.46587ZM21.9788 6.54674V6.69674H22.1467L22.1279 6.52991L21.9788 6.54674ZM19.6423 5.35759V5.20759H19.3874L19.5112 5.43045L19.6423 5.35759ZM20.3032 6.54674L20.1721 6.6196L20.2149 6.69674H20.3032V6.54674ZM16.8217 2.12095L16.6905 2.19367L16.6906 2.19386L16.8217 2.12095ZM16.2157 1.94792L16.2886 2.07901L16.2891 2.07875L16.2157 1.94792ZM19.283 6.54632V6.69632H19.538L19.414 6.47341L19.283 6.54632ZM7.94596 6.54632L7.87307 6.41523L7.36754 6.69632H7.94596V6.54632ZM21.9935 17.5084H22.1435V17.3584H21.9935V17.5084ZM21.9935 11.8234V11.9734H22.1435V11.8234H21.9935ZM21.9935 7.4386H22.1435V7.2886H21.9935V7.4386ZM6.11069 6.54681V6.69681H6.1496L6.1836 6.6779L6.11069 6.54681ZM8.24915 5.35759L8.32205 5.48868L8.82751 5.20759H8.24915V5.35759ZM23.1082 16.6162V16.7662H23.2582V16.6162H23.1082ZM23.1082 12.7146H23.2582V12.5646H23.1082V12.7146ZM19.114 13.7176V13.8676H19.114L19.114 13.7176ZM24 11.673H22.8853V11.973H24V11.673ZM24.15 17.5079V11.823H23.85V17.5079H24.15ZM22.8853 17.6579H24V17.3579H22.8853V17.6579ZM23.0353 22.0038V17.5079H22.7353V22.0038H23.0353ZM20.6559 24.3832C21.9681 24.3832 23.0353 23.3159 23.0353 22.0038H22.7353C22.7353 23.1502 21.8024 24.0832 20.6559 24.0832V24.3832ZM3.22941 24.3832H20.6559V24.0832H3.22941V24.3832ZM0.85 22.0038C0.85 23.3159 1.91725 24.3832 3.22941 24.3832V24.0832C2.08293 24.0832 1.15 23.1502 1.15 22.0038H0.85ZM0.85 6.69521V22.0038H1.15V6.69521H0.85ZM3.22941 4.3158C1.91725 4.3158 0.85 5.38305 0.85 6.69521H1.15C1.15 5.54873 2.08293 4.6158 3.22941 4.6158V4.3158ZM9.85255 4.3158H3.22941V4.6158H9.85255V4.3158ZM15.709 1.03743L9.77965 4.33471L9.92545 4.59689L15.8548 1.29961L15.709 1.03743ZM16.4316 0.85C16.1795 0.85 15.9297 0.914965 15.7091 1.03736L15.8547 1.29968C16.031 1.20187 16.2307 1.15 16.4316 1.15V0.85ZM17.7323 1.61527C17.4704 1.14297 16.972 0.85 16.4316 0.85V1.15C16.8632 1.15 17.261 1.38403 17.47 1.76078L17.7323 1.61527ZM19.2772 4.39296L17.7322 1.61512L17.4701 1.76094L19.0151 4.53878L19.2772 4.39296ZM20.6559 4.31587H19.1461V4.61587H20.6559V4.31587ZM23.0353 6.69528C23.0353 5.38312 21.968 4.31587 20.6559 4.31587V4.61587C21.8024 4.61587 22.7353 5.5488 22.7353 6.69528H23.0353ZM23.0353 11.823V6.69528H22.7353V11.823H23.0353ZM20.6559 5.50759C21.264 5.50759 21.7627 5.96975 21.8297 6.56356L22.1279 6.52991C22.0442 5.78874 21.421 5.20759 20.6559 5.20759V5.50759ZM19.6423 5.50759H20.6559V5.20759H19.6423V5.50759ZM20.4343 6.47388L19.7735 5.28473L19.5112 5.43045L20.1721 6.6196L20.4343 6.47388ZM21.9788 6.39674H20.3032V6.69674H21.9788V6.39674ZM16.9529 2.04823C16.7976 1.768 16.4247 1.65875 16.1424 1.81708L16.2891 2.07875C16.4249 2.00258 16.6149 2.05734 16.6905 2.19367L16.9529 2.04823ZM19.414 6.47341L16.9528 2.04804L16.6906 2.19386L19.1519 6.61923L19.414 6.47341ZM7.94596 6.69632H19.283V6.39632H7.94596V6.69632ZM16.1428 1.81682L7.87307 6.41523L8.01886 6.67742L16.2886 2.07901L16.1428 1.81682ZM21.8435 22.0038C21.8435 22.6584 21.3105 23.1915 20.6558 23.1915V23.4915C21.4762 23.4915 22.1435 22.8241 22.1435 22.0038H21.8435ZM21.8435 17.5084V22.0038H22.1435V17.5084H21.8435ZM18.7328 17.6584H21.9935V17.3584H18.7328V17.6584ZM15.8362 14.7618C15.8362 16.3589 17.1358 17.6584 18.7328 17.6584V17.3584C17.3014 17.3584 16.1362 16.1932 16.1362 14.7618H15.8362ZM15.8362 14.57V14.7618H16.1362V14.57H15.8362ZM18.7328 11.6734C17.1357 11.6734 15.8362 12.973 15.8362 14.57H16.1362C16.1362 13.1387 17.3014 11.9734 18.7328 11.9734V11.6734ZM21.9935 11.6734H18.7328V11.9734H21.9935V11.6734ZM21.8435 7.4386V11.8234H22.1435V7.4386H21.8435ZM20.799 7.5886H21.9935V7.2886H20.799V7.5886ZM4.50687 7.5886H20.799V7.2886H4.50687V7.5886ZM3.5081 7.5886H4.50687V7.2886H3.5081V7.5886ZM2.91221 6.9927C2.91221 7.32161 3.1786 7.5886 3.5081 7.5886V7.2886C3.34446 7.2886 3.21221 7.15611 3.21221 6.9927H2.91221ZM3.5081 6.39681C3.1786 6.39681 2.91221 6.6638 2.91221 6.9927H3.21221C3.21221 6.8293 3.34446 6.69681 3.5081 6.69681V6.39681ZM6.11069 6.39681H3.5081V6.69681H6.11069V6.39681ZM8.17624 5.2265L6.03779 6.41572L6.1836 6.6779L8.32205 5.48868L8.17624 5.2265ZM3.22941 5.50759H8.24915V5.20759H3.22941V5.50759ZM2.04172 6.69528C2.04172 6.04063 2.57476 5.50759 3.22941 5.50759V5.20759C2.40907 5.20759 1.74172 5.87494 1.74172 6.69528H2.04172ZM2.04172 22.0038V6.69528H1.74172V22.0038H2.04172ZM3.22941 23.1915C2.57476 23.1915 2.04172 22.6584 2.04172 22.0038H1.74172C1.74172 22.8241 2.40907 23.4915 3.22941 23.4915V23.1915ZM20.6558 23.1915H3.22941V23.4915H20.6558V23.1915ZM22.8853 16.7662H23.1082V16.4662H22.8853V16.7662ZM18.7328 16.7662H22.8853V16.4662H18.7328V16.7662ZM16.7279 14.7613C16.7279 15.867 17.6271 16.7662 18.7328 16.7662V16.4662C17.7928 16.4662 17.0279 15.7014 17.0279 14.7613H16.7279ZM16.7279 14.5695V14.7613H17.0279V14.5695H16.7279ZM18.7328 12.5646C17.627 12.5646 16.7279 13.4638 16.7279 14.5695H17.0279C17.0279 13.6295 17.7927 12.8646 18.7328 12.8646V12.5646ZM22.8853 12.5646H18.7328V12.8646H22.8853V12.5646ZM23.1082 12.5646H22.8853V12.8646H23.1082V12.5646ZM23.2582 16.6162V12.7146H22.9582V16.6162H23.2582ZM19.9485 14.702C19.9485 15.1632 19.5751 15.5365 19.114 15.5365V15.8365C19.7408 15.8365 20.2485 15.3289 20.2485 14.702H19.9485ZM19.114 13.8676C19.5751 13.8675 19.9485 14.2412 19.9485 14.702H20.2485C20.2485 14.0757 19.7409 13.5675 19.114 13.5676L19.114 13.8676ZM18.2795 14.702C18.2795 14.241 18.6529 13.8676 19.114 13.8676V13.5676C18.4873 13.5676 17.9795 14.0753 17.9795 14.702H18.2795ZM19.114 15.5365C18.6529 15.5365 18.2795 15.1631 18.2795 14.702H17.9795C17.9795 15.3288 18.4872 15.8365 19.114 15.8365V15.5365Z" fill="white"/>
</svg>
