<svg width="25" height="25" viewBox="0 0 25 25" fill="none" 
    xmlns="http://www.w3.org/2000/svg">
    <g clip-path="url(#clip0)">
        <path d="M24.6156 8.85183L13.6822 2.94822C12.9419 2.54851 12.0581 2.54851 11.3178 2.94822L0.384422 8.85183C0.110008 9.00002 -0.0446798 9.30881 0.0114237 9.62585C0.0513163 9.8512 0.201414 10.0419 0.402781 10.1507L2.54956 11.3098V18.233C1.69912 18.5463 1.10249 19.3888 1.16118 20.3591C1.22656 21.4396 2.11357 22.3074 3.19521 22.3508C4.40615 22.3992 5.40674 21.4281 5.40674 20.2277C5.40674 19.3134 4.82617 18.5321 4.01435 18.233V12.1008L5.90488 13.1216L5.40317 16.3426C5.38589 16.4535 5.37837 16.5662 5.38711 16.6781C5.47031 17.7443 6.26899 18.7024 7.65727 19.3922C8.96303 20.041 10.6829 20.3983 12.4999 20.3983C14.317 20.3983 16.0369 20.041 17.3426 19.3922C18.7309 18.7024 19.5296 17.7444 19.6128 16.6782C19.6215 16.5662 19.614 16.4535 19.5967 16.3426L19.0947 13.1219L24.5972 10.1507C24.7985 10.042 24.9487 9.85124 24.9885 9.6259C25.0447 9.30881 24.89 9.00002 24.6156 8.85183ZM3.28198 20.8876C2.91811 20.8876 2.62202 20.5916 2.62202 20.2277C2.62202 19.8637 2.91806 19.5677 3.28198 19.5677C3.6459 19.5677 3.94194 19.8637 3.94194 20.2277C3.94194 20.5916 3.64585 20.8876 3.28198 20.8876ZM16.6909 18.0804C15.5837 18.6305 14.0954 18.9335 12.5 18.9335C10.9046 18.9335 9.41631 18.6305 8.30913 18.0804C7.37846 17.618 6.84477 17.0391 6.84477 16.4921C6.84477 15.945 7.37851 15.3661 8.30913 14.9037C9.41631 14.3536 10.9046 14.0507 12.5 14.0507C14.0954 14.0507 15.5837 14.3536 16.6909 14.9037C17.6215 15.3661 18.1552 15.945 18.1552 16.4921C18.1552 17.0391 17.6215 17.618 16.6909 18.0804ZM7.27925 13.7948L7.70981 11.159C7.7103 11.156 7.71079 11.1531 7.71118 11.1501C7.90825 9.84309 10.3504 9.03411 12.5 9.03411C13.8622 9.03411 15.1013 9.27688 15.989 9.7177C16.4312 9.93728 17.1879 10.4141 17.2874 11.1404C17.2883 11.1465 17.2892 11.1527 17.2902 11.1589L17.7203 13.7945C17.5998 13.7247 17.4739 13.6571 17.3427 13.5919C16.0369 12.9431 14.3171 12.5858 12.5 12.5858C10.6829 12.5858 8.96308 12.9431 7.65732 13.5919C7.52597 13.6572 7.3999 13.7249 7.27925 13.7948ZM18.8451 11.5919L18.7373 10.9315C18.454 8.91995 15.9494 7.56921 12.5 7.56921C10.9183 7.56921 9.48408 7.8759 8.35249 8.45613C7.15473 9.07024 6.41303 9.94758 6.26343 10.927L6.15483 11.5918L2.27397 9.49622L12.0138 4.23718C12.3182 4.07278 12.6818 4.07283 12.9862 4.23718L22.7261 9.49631L18.8451 11.5919Z" fill="#cda555"/>
    </g>
    <defs>
        <clipPath id="clip0">
            <rect width="25" height="25" fill="cda555"/>
        </clipPath>
    </defs>
</svg>
