<svg width="22" height="20" viewBox="0 0 22 20" fill="none" xmlns="http://www.w3.org/2000/svg">
<path fill-rule="evenodd" clip-rule="evenodd" d="M17.5141 2.22899H20.0076C21.0701 2.22899 21.9355 3.10405 21.9355 4.18807V18.0409C21.9355 19.1206 21.0701 20 20.0076 20H1.92792C0.865423 20 0 19.1206 0 18.0409V4.18807C0 3.1084 0.865423 2.22899 1.92792 2.22899H4.4128V1.60209C4.4128 0.718328 5.11971 0 5.9937 0C6.86769 0 7.5746 0.718328 7.5746 1.60209V2.22899H9.38256V1.60209C9.38256 0.718328 10.0895 0 10.9635 0C11.8375 0 12.5444 0.718328 12.5444 1.60209V2.22899H14.3523V1.60209C14.3523 0.718328 15.0635 0 15.9332 0C16.8072 0 17.5141 0.718328 17.5141 1.60209V2.22899ZM20.0076 18.6896C20.3632 18.6896 20.6502 18.3979 20.6502 18.0366V8.21071H1.28528V18.0366C1.28528 18.3979 1.57233 18.6896 1.92792 18.6896H20.0076ZM1.92792 3.53505H6.2936V4.29691C6.2936 4.65825 6.58065 4.94993 6.93624 4.94993C7.29183 4.94993 7.57888 4.65825 7.57888 4.29691V3.53505H11.2591V4.29691C11.2591 4.65825 11.5461 4.94993 11.9017 4.94993C12.2573 4.94993 12.5444 4.65825 12.5444 4.29691V3.53505H16.2245V4.29691C16.2245 4.65825 16.5116 4.94993 16.8672 4.94993C17.2228 4.94993 17.5098 4.65825 17.5098 4.29691V3.53505H20.0076C20.3632 3.53505 20.6502 3.82673 20.6502 4.18807V6.90901H1.28528V4.18807C1.28528 3.82673 1.57233 3.53505 1.92792 3.53505ZM15.9375 1.30605C15.7747 1.30605 15.6419 1.44101 15.6419 1.60209H15.6462V2.22899H16.2331V1.60209C16.2331 1.44101 16.096 1.30605 15.9375 1.30605ZM10.6721 1.60209C10.6721 1.44101 10.8049 1.30605 10.9677 1.30605C11.1305 1.30605 11.2634 1.44101 11.2634 1.60209V2.22899H10.6764V1.60209H10.6721ZM6.00227 1.30605C5.83947 1.30605 5.70665 1.44101 5.70665 1.60209L5.71094 2.22899H6.29788V1.60209C6.29788 1.44101 6.16079 1.30605 6.00227 1.30605ZM4.42566 12.512C3.79587 12.512 3.28175 11.9896 3.28175 11.3496C3.28175 10.7096 3.79587 10.1872 4.42566 10.1872C5.05544 10.1872 5.56956 10.7096 5.56956 11.3496C5.56956 11.9896 5.05544 12.512 4.42566 12.512ZM7.61744 11.3496C7.61744 11.9896 8.13155 12.512 8.76134 12.512C9.39541 12.512 9.90524 11.9896 9.90524 11.3496C9.90524 10.7096 9.39113 10.1872 8.76134 10.1872C8.13155 10.1872 7.61744 10.7096 7.61744 11.3496ZM13.1013 12.512C12.4715 12.512 11.9574 11.9896 11.9574 11.3496C11.9574 10.7096 12.4715 10.1872 13.1013 10.1872C13.7311 10.1872 14.2452 10.7096 14.2452 11.3496C14.2409 11.9896 13.7311 12.512 13.1013 12.512ZM16.2931 11.3496C16.2931 11.9896 16.8072 12.512 17.437 12.512C18.0668 12.512 18.5809 11.9896 18.5809 11.3496C18.5809 10.7096 18.0668 10.1872 17.437 10.1872C16.8072 10.1872 16.2931 10.7096 16.2931 11.3496ZM4.42566 16.7741C3.79587 16.7741 3.28175 16.2516 3.28175 15.6117C3.28175 14.9717 3.79587 14.4493 4.42566 14.4493C5.05544 14.4493 5.56956 14.9717 5.56956 15.6117C5.56956 16.2516 5.05544 16.7741 4.42566 16.7741ZM7.61744 15.6117C7.61744 16.2516 8.13155 16.7741 8.76134 16.7741C9.39541 16.7741 9.90524 16.2516 9.90524 15.6117C9.90524 14.9717 9.39113 14.4493 8.76134 14.4493C8.13155 14.4493 7.61744 14.9717 7.61744 15.6117ZM13.1013 16.7741C12.4715 16.7741 11.9574 16.2516 11.9574 15.6117C11.9574 14.9717 12.4715 14.4493 13.1013 14.4493C13.7311 14.4493 14.2452 14.9717 14.2452 15.6117C14.2409 16.2516 13.7311 16.7741 13.1013 16.7741ZM16.2931 15.6117C16.2931 16.2516 16.8072 16.7741 17.437 16.7741C18.0668 16.7741 18.5809 16.2516 18.5809 15.6117C18.5809 14.9717 18.0668 14.4493 17.437 14.4493C16.8072 14.4493 16.2931 14.9717 16.2931 15.6117Z" fill="#414140"/>
</svg>
