<svg width="20" height="20" viewBox="0 0 20 20" fill="none" xmlns="http://www.w3.org/2000/svg">
<path fill-rule="evenodd" clip-rule="evenodd" d="M0.320312 9.95747C0.320312 15.3576 4.69797 19.7352 10.0981 19.7352C15.4982 19.7352 19.8759 15.3576 19.8759 9.95747C19.8759 4.55735 15.4982 0.179688 10.0981 0.179688C4.69797 0.179688 0.320312 4.55735 0.320312 9.95747ZM10.0981 18.4019C5.43435 18.4019 1.65365 14.6212 1.65365 9.95747C1.65365 5.29373 5.43435 1.51302 10.0981 1.51302C14.7618 1.51302 18.5425 5.29373 18.5425 9.95747C18.5425 12.1971 17.6529 14.3449 16.0692 15.9286C14.4856 17.5122 12.3377 18.4019 10.0981 18.4019Z" fill="#cda555"/>
<path fill-rule="evenodd" clip-rule="evenodd" d="M7.9002 10C9.25122 10 10.3502 8.87857 10.3502 7.5C10.3502 6.12143 9.25122 5 7.9002 5C6.54918 5 5.45016 6.12143 5.45016 7.5C5.45016 8.87857 6.54918 10 7.9002 10ZM3 13.75C3 12.0857 6.26205 11.25 7.90008 11.25C9.53811 11.25 12.8002 12.0857 12.8002 13.75V15H3V13.75ZM7.90031 12.6786C6.64729 12.6786 5.22627 13.1571 4.63826 13.5714H11.1624C10.5744 13.1571 9.15333 12.6786 7.90031 12.6786ZM8.94998 7.5C8.94998 6.90714 8.48097 6.42857 7.89996 6.42857C7.31895 6.42857 6.84995 6.90714 6.84995 7.5C6.84995 8.09286 7.31895 8.57143 7.89996 8.57143C8.48097 8.57143 8.94998 8.09286 8.94998 7.5ZM12.828 11.2929C13.64 11.8929 14.2 12.6929 14.2 13.75V15H17V13.75C17 12.3071 14.55 11.4857 12.828 11.2929ZM14.5502 7.5C14.5502 8.87857 13.4511 10 12.1001 10C11.7221 10 11.3721 9.90714 11.0501 9.75C11.4911 9.11429 11.7501 8.33571 11.7501 7.5C11.7501 6.66429 11.4911 5.88571 11.0501 5.25C11.3721 5.09286 11.7221 5 12.1001 5C13.4511 5 14.5502 6.12143 14.5502 7.5Z" fill="#cda555"/>
</svg>
