<svg width="22" height="20" viewBox="0 0 22 20" fill="none" xmlns="http://www.w3.org/2000/svg">
<path fill-rule="evenodd" clip-rule="evenodd" d="M0.908854 18.3357L0.908854 1.18254C0.908854 0.764593 1.2405 0.425781 1.6496 0.425781L13.5014 0.425781C13.9105 0.425781 14.2422 0.764593 14.2422 1.18254V4.96632C14.2422 5.38427 13.9105 5.72308 13.5014 5.72308C13.0923 5.72308 12.7607 5.38427 12.7607 4.96632V1.93929L2.39034 1.93929L2.39034 17.5789L12.7607 17.5789L12.7607 14.0474C12.7607 13.6295 13.0923 13.2906 13.5014 13.2906C13.9105 13.2906 14.2422 13.6295 14.2422 14.0474L14.2422 18.3357C14.2422 18.7536 13.9105 19.0924 13.5014 19.0924L1.6496 19.0924C1.2405 19.0924 0.908854 18.7536 0.908854 18.3357Z" fill="#414140"/>
<path fill-rule="evenodd" clip-rule="evenodd" d="M6.9095 9.10398C6.9095 8.68897 7.22724 8.35254 7.61918 8.35254L18.8699 8.35254L16.6368 6.42887C16.3324 6.16741 16.2858 5.69417 16.5327 5.37185C16.7797 5.04953 17.2266 5.00018 17.531 5.26164L21.3869 8.58799C21.463 8.74913 21.5263 8.91669 21.5762 9.08895C21.5058 9.29214 21.4154 9.48692 21.3065 9.67006L17.5215 12.9263C17.3761 13.0516 17.1896 13.1104 17.0032 13.0897C16.8167 13.069 16.6457 12.9705 16.528 12.8161C16.4094 12.6613 16.3538 12.463 16.3733 12.2647C16.3928 12.0665 16.4859 11.8846 16.6321 11.759L18.8652 9.83537L7.61918 9.83537C7.23451 9.83552 6.91976 9.51114 6.9095 9.10398Z" fill="#414140"/>
</svg>
