<svg width="25" height="25" viewBox="0 0 25 25" fill="none" 
    xmlns="http://www.w3.org/2000/svg">
    <path d="M22.6562 0.78125H8.59375C8.28295 0.78125 7.98488 0.904715 7.76511 1.12448C7.54534 1.34425 7.42188 1.64232 7.42188 1.95312V8.08594L6.5332 7.15273C6.4794 7.0961 6.40985 7.05689 6.33354 7.04019C6.25722 7.02348 6.17765 7.03004 6.10511 7.05902C6.03256 7.088 5.97037 7.13806 5.92656 7.20274C5.88276 7.26742 5.85936 7.34376 5.85938 7.42188V23.8281C5.85938 23.9317 5.90053 24.0311 5.97379 24.1043C6.04704 24.1776 6.1464 24.2188 6.25 24.2188H21.875C21.9514 24.2188 22.0262 24.1964 22.09 24.1543C22.1538 24.1123 22.2039 24.0524 22.234 23.9822C22.2642 23.912 22.2731 23.8344 22.2596 23.7592C22.2461 23.684 22.2109 23.6144 22.1582 23.559L20.5543 21.875H22.6562C22.9671 21.875 23.2651 21.7515 23.4849 21.5318C23.7047 21.312 23.8281 21.0139 23.8281 20.7031V1.95312C23.8281 1.64232 23.7047 1.34425 23.4849 1.12448C23.2651 0.904715 22.9671 0.78125 22.6562 0.78125ZM19.9219 1.5625H20.7031V3.00781L20.6375 2.90937C20.5997 2.85885 20.5507 2.81783 20.4942 2.78958C20.4378 2.76132 20.3756 2.74661 20.3125 2.74661C20.2494 2.74661 20.1872 2.76132 20.1308 2.78958C20.0743 2.81783 20.0253 2.85885 19.9875 2.90937L19.9219 3.00781V1.5625ZM6.64062 23.4375V21.875H7.42188V21.0938H6.64062V19.5312H7.42188V18.75H6.64062V17.1875H7.42188V16.4062H6.64062V14.8438H7.42188V14.0625H6.64062V12.5H7.42188V11.7188H6.64062V8.39844L20.9637 23.4375H6.64062ZM23.0469 20.7031C23.0469 20.8067 23.0057 20.9061 22.9325 20.9793C22.8592 21.0526 22.7598 21.0938 22.6562 21.0938H19.8105L8.20312 8.90625V1.95312C8.20312 1.84952 8.24428 1.75017 8.31754 1.67691C8.39079 1.60366 8.49015 1.5625 8.59375 1.5625H19.1406V4.29688C19.1406 4.38072 19.1676 4.46234 19.2175 4.52968C19.2675 4.59702 19.3378 4.6465 19.418 4.67081C19.4982 4.69512 19.5842 4.69296 19.6631 4.66467C19.742 4.63637 19.8097 4.58343 19.8563 4.51367L20.3125 3.82812L20.7687 4.5125C20.8152 4.58217 20.8828 4.63507 20.9616 4.6634C21.0404 4.69172 21.1263 4.69397 21.2064 4.66981C21.2866 4.64565 21.3569 4.59636 21.407 4.52921C21.457 4.46207 21.4841 4.38062 21.4844 4.29688V1.5625H22.6562C22.7598 1.5625 22.8592 1.60366 22.9325 1.67691C23.0057 1.75017 23.0469 1.84952 23.0469 1.95312V20.7031Z" fill="black"/>
    <path d="M3.125 3.125C2.60719 3.12562 2.11076 3.33159 1.74462 3.69774C1.37847 4.06389 1.1725 4.56031 1.17188 5.07812V21.4844C1.172 21.5615 1.19482 21.6369 1.2375 21.7012L2.8 24.0449C2.83567 24.0984 2.884 24.1423 2.9407 24.1726C2.99739 24.203 3.0607 24.2188 3.125 24.2188C3.1893 24.2188 3.25261 24.203 3.3093 24.1726C3.366 24.1423 3.41433 24.0984 3.45 24.0449L5.0125 21.7012C5.05518 21.6369 5.078 21.5615 5.07812 21.4844V5.07812C5.0775 4.56031 4.87153 4.06389 4.50538 3.69774C4.13924 3.33159 3.64281 3.12562 3.125 3.125ZM3.125 3.90625C3.4358 3.90625 3.73387 4.02971 3.95364 4.24948C4.17341 4.46925 4.29688 4.76732 4.29688 5.07812V5.46875H1.95312V5.07812C1.95312 4.76732 2.07659 4.46925 2.29636 4.24948C2.51613 4.02971 2.8142 3.90625 3.125 3.90625ZM3.51562 21.0938V7.42188H4.29688V21.0938H3.51562ZM1.95312 21.0938V7.42188H2.73438V21.0938H1.95312ZM1.95312 6.64062V6.25H4.29688V6.64062H1.95312ZM3.125 23.125L2.29219 21.875H3.95781L3.125 23.125Z" fill="black"/>
    <path d="M8.98437 21.4845H15.625C15.7013 21.4845 15.776 21.4622 15.8398 21.4203C15.9036 21.3783 15.9536 21.3186 15.9839 21.2485C16.0141 21.1784 16.0231 21.101 16.0098 21.0258C15.9965 20.9506 15.9614 20.881 15.909 20.8255L9.26836 13.7943C9.21465 13.7374 9.1451 13.698 9.06873 13.6811C8.99236 13.6642 8.91267 13.6706 8.83999 13.6995C8.76731 13.7285 8.70498 13.7785 8.66108 13.8433C8.61718 13.908 8.59372 13.9844 8.59375 14.0626V21.0939C8.59375 21.1975 8.6349 21.2968 8.70816 21.3701C8.78142 21.4434 8.88077 21.4845 8.98437 21.4845ZM9.375 15.0451L14.7187 20.7033H9.375V15.0451Z" fill="black"/>
    <path d="M9.76562 3.125H11.3281V3.90625H9.76562V3.125Z" fill="black"/>
    <path d="M12.1094 3.125H15.2344V3.90625H12.1094V3.125Z" fill="black"/>
    <path d="M9.76562 4.6875H15.2344V5.46875H9.76562V4.6875Z" fill="black"/>
    <path d="M11.3281 7.03125H12.8906V7.8125H11.3281V7.03125Z" fill="black"/>
    <path d="M13.6719 7.03125H21.4844V7.8125H13.6719V7.03125Z" fill="black"/>
    <path d="M11.3281 8.59375H21.4844V9.375H11.3281V8.59375Z" fill="black"/>
    <path d="M11.3281 10.1562H21.4844V10.9375H11.3281V10.1562Z" fill="black"/>
</svg>
