<svg width="25" height="25" viewBox="0 0 25 25" fill="none" 
    xmlns="http://www.w3.org/2000/svg">
    <path d="M15.9207 3.59961H6.11388C5.91189 3.59961 5.74805 3.76345 5.74805 3.96544C5.74805 4.16762 5.91189 4.33146 6.11388 4.33146H15.9207C16.1227 4.33146 16.2865 4.16762 16.2865 3.96544C16.2865 3.76345 16.1227 3.59961 15.9207 3.59961Z" fill="black"/>
    <path d="M6.11388 5.9838H7.55698C7.75896 5.9838 7.92281 5.81996 7.92281 5.61797C7.92281 5.41579 7.75896 5.25195 7.55698 5.25195H6.11388C5.91189 5.25195 5.74805 5.41579 5.74805 5.61797C5.74805 5.81996 5.91189 5.9838 6.11388 5.9838Z" fill="black"/>
    <path d="M13.8658 5.25195H9.28185C9.07986 5.25195 8.91602 5.41579 8.91602 5.61797C8.91602 5.81996 9.07986 5.9838 9.28185 5.9838H13.8658C14.0678 5.9838 14.2316 5.81996 14.2316 5.61797C14.2316 5.41579 14.0678 5.25195 13.8658 5.25195Z" fill="black"/>
    <path d="M9.51182 8.89844H6.11388C5.91189 8.89844 5.74805 9.06228 5.74805 9.26427C5.74805 9.46645 5.91189 9.6301 6.11388 9.6301H9.51182C9.71381 9.6301 9.87765 9.46645 9.87765 9.26427C9.87765 9.06228 9.71381 8.89844 9.51182 8.89844Z" fill="black"/>
    <path d="M6.11388 16.5996C5.91189 16.5996 5.74805 16.7635 5.74805 16.9654V19.5835C5.74805 19.7855 5.91189 19.9493 6.11388 19.9493C6.31606 19.9493 6.4799 19.7855 6.4799 19.5835V16.9654C6.4799 16.7635 6.31606 16.5996 6.11388 16.5996Z" fill="black"/>
    <path d="M7.2838 16.5996C7.08181 16.5996 6.91797 16.7635 6.91797 16.9654V19.5835C6.91797 19.7855 7.08181 19.9493 7.2838 19.9493C7.48579 19.9493 7.64963 19.7855 7.64963 19.5835V16.9654C7.64963 16.7635 7.48579 16.5996 7.2838 16.5996Z" fill="black"/>
    <path d="M8.45177 16.5996C8.24978 16.5996 8.08594 16.7635 8.08594 16.9654V19.5835C8.08594 19.7855 8.24978 19.9493 8.45177 19.9493C8.65395 19.9493 8.8176 19.7855 8.8176 19.5835V16.9654C8.8176 16.7635 8.65395 16.5996 8.45177 16.5996Z" fill="black"/>
    <path d="M23.8887 15.2353H22.046C22.1168 15.0793 22.1565 14.9063 22.1565 14.7241V13.8124C22.1565 13.6303 22.1168 13.4573 22.046 13.3013H22.0527C22.7165 13.3013 23.2564 12.7613 23.2564 12.0973V1.20373C23.2564 0.539969 22.7165 0 22.0525 0H4.24422C3.58047 0 3.04031 0.539969 3.04031 1.20373V12.0975C3.04031 12.265 3.07483 12.4244 3.13701 12.5696H1.34067C0.655364 12.5696 0.0976562 13.1271 0.0976562 13.8126V14.7241C0.0976562 15.4096 0.655364 15.9671 1.34067 15.9671H2.50549C2.48413 16.0476 2.47173 16.1321 2.47173 16.2204V20.3312C2.47173 20.8744 2.91366 21.3163 3.45668 21.3163H22.0626C22.1454 21.3163 22.2127 21.3836 22.2127 21.4664V24.1182C22.2127 24.201 22.1454 24.2683 22.0626 24.2683H4.55131C4.46853 24.2683 4.4012 24.201 4.4012 24.1182V22.6278C4.4012 22.4256 4.23736 22.262 4.03537 22.262C3.83338 22.262 3.66954 22.4256 3.66954 22.6278V24.1182C3.66954 24.6044 4.06512 25 4.55131 25H22.0626C22.549 25 22.9446 24.6044 22.9446 24.1182V21.4662C22.9446 21.4149 22.9393 21.3651 22.9309 21.3161H23.8887C24.4318 21.3161 24.8737 20.8744 24.8737 20.3312V16.2204C24.8737 15.6772 24.4318 15.2353 23.8887 15.2353ZM14.4453 13.0457C14.4455 13.0449 14.4458 13.044 14.446 13.0432L14.8912 11.6653C14.8914 11.6646 14.8918 11.6636 14.892 11.6627L15.1283 10.931C15.2839 10.9527 15.4457 10.9413 15.6036 10.893C15.7858 10.8372 15.9832 10.9323 16.0532 11.1093C16.2124 11.5129 16.5857 11.7796 17.0149 11.8028L15.8355 15.4533C15.825 15.477 15.8168 15.5018 15.8115 15.5275L15.1132 17.6893L14.4552 16.9635C14.3678 16.8672 14.2357 16.8245 14.1082 16.8516L13.1502 17.0551L14.4453 13.0457ZM17.4175 10.8408C17.3322 11.0565 17.1343 11.0733 17.0755 11.0733C17.0169 11.0733 16.819 11.0565 16.7337 10.8408C16.5651 10.4133 16.1482 10.1457 15.7074 10.1457C15.6017 10.1457 15.4947 10.161 15.3894 10.1934C15.1676 10.2613 15.031 10.1169 14.9944 10.0712C14.9578 10.0252 14.8475 9.86002 14.9631 9.65879C15.2469 9.16498 15.101 8.52583 14.6311 8.20406C14.4396 8.07303 14.4672 7.87619 14.4804 7.81916C14.4933 7.76194 14.5538 7.57254 14.7831 7.53745C15.3463 7.45142 15.7549 6.93911 15.7135 6.37091C15.6965 6.13955 15.8676 6.03846 15.9204 6.0131C15.9733 5.98754 16.159 5.91677 16.3294 6.07432C16.7478 6.46094 17.4032 6.46094 17.8217 6.07432C17.992 5.91677 18.1776 5.98754 18.2304 6.0131C18.2834 6.03846 18.4545 6.13955 18.4375 6.37091C18.3962 6.93892 18.8047 7.45142 19.3679 7.53745C19.5972 7.57254 19.6577 7.76175 19.6706 7.81897C19.6836 7.87619 19.7115 8.07303 19.52 8.20406C19.05 8.52583 18.9041 9.16479 19.1879 9.65879C19.3035 9.86002 19.1932 10.0252 19.1566 10.0712C19.12 10.1169 18.9834 10.2613 18.7616 10.1934C18.2171 10.0265 17.6265 10.3109 17.4175 10.8408ZM19.6798 10.5844C19.6966 10.5659 19.7132 10.547 19.729 10.5272C20.0122 10.1721 20.0489 9.68798 19.8227 9.29411C19.7277 9.12912 19.7765 8.9155 19.9337 8.80774C20.3085 8.5512 20.4853 8.09897 20.3842 7.65608C20.2831 7.2132 19.9276 6.88265 19.4786 6.81399C19.2903 6.78538 19.1536 6.61391 19.1675 6.42394C19.2005 5.97094 18.9573 5.55076 18.5482 5.35373C18.1388 5.15651 17.6588 5.22841 17.325 5.53683C17.1852 5.66596 16.966 5.66596 16.8262 5.53683C16.4924 5.22841 16.0124 5.15651 15.603 5.35373C15.1937 5.55076 14.9507 5.97094 14.9837 6.42413C14.9976 6.61391 14.8609 6.78538 14.6726 6.81399C14.2236 6.88265 13.8681 7.2132 13.767 7.65608C13.6659 8.09897 13.8427 8.5512 14.2175 8.80774C14.3747 8.9155 14.4235 9.12912 14.3285 9.29411C14.1023 9.68798 14.139 10.1721 14.4222 10.5272C14.438 10.547 14.4546 10.5659 14.4714 10.5844L14.2761 11.1891H5.1525V2.11219H21.1443V11.1891H19.8751L19.6798 10.5844ZM17.0755 13.995L17.4762 15.2353H16.675L17.0755 13.995ZM18.3286 15.4936C18.3284 15.4926 18.3281 15.4916 18.3277 15.4907L17.46 12.8048L17.905 11.4273C17.9851 11.3348 18.0511 11.2283 18.098 11.1093C18.168 10.9323 18.3654 10.8372 18.5476 10.893C18.7055 10.9413 18.8673 10.9525 19.0229 10.931L19.259 11.6625C19.2594 11.6636 19.2598 11.6647 19.2602 11.6659L19.705 13.0428C19.7054 13.044 19.7057 13.0451 19.7061 13.0462L20.5547 15.673C20.5602 15.7003 20.5688 15.7264 20.5799 15.7512L21.0012 17.0551L20.0431 16.8516C19.9157 16.8245 19.7836 16.8672 19.696 16.9635L19.0382 17.6893L18.3286 15.4936ZM21.4248 13.8126V14.7241C21.4248 14.916 21.3182 15.0835 21.1614 15.1708L20.5576 13.3013H20.9135C21.1954 13.3013 21.4248 13.5305 21.4248 13.8126ZM3.77216 12.0975V1.20373C3.77216 0.943564 3.98387 0.731848 4.24422 0.731848H22.0525C22.3129 0.731848 22.5246 0.943564 22.5246 1.20373V12.0975C22.5246 12.3579 22.3129 12.5696 22.0525 12.5696H20.321L20.1114 11.9209H21.2144C21.5791 11.9209 21.8761 11.6241 21.8761 11.2592V2.042C21.8761 1.67713 21.5791 1.38035 21.2144 1.38035H5.08231C4.71763 1.38035 4.42065 1.67713 4.42065 2.042V11.2592C4.42065 11.6241 4.71763 11.9209 5.08231 11.9209H14.0396L13.8302 12.5694H4.24422C3.98387 12.5694 3.77216 12.3577 3.77216 12.0975ZM0.829504 14.7241V13.8126C0.829504 13.5305 1.05877 13.3013 1.34067 13.3013H13.5938L12.969 15.2353H1.34067C1.05877 15.2353 0.829504 15.006 0.829504 14.7241ZM24.1418 20.3312C24.1418 20.4708 24.0283 20.5844 23.8887 20.5844H3.45668C3.31706 20.5844 3.20339 20.4708 3.20339 20.3312V16.2204C3.20339 16.069 3.33404 15.9671 3.52859 15.9671H12.7325L12.4256 16.9174C12.3501 17.1507 12.4031 17.3986 12.5673 17.5806C12.7315 17.7627 12.9728 17.8409 13.2124 17.79L14.0545 17.6111L14.6326 18.2487C14.7638 18.3933 14.9435 18.4721 15.1323 18.4721C15.1806 18.4721 15.2296 18.4669 15.2782 18.4564C15.518 18.4049 15.706 18.2348 15.7814 18.0015L16.4385 15.9671H17.7126L18.3698 18.0015C18.4452 18.2348 18.6332 18.4047 18.8728 18.4564C18.9216 18.4669 18.9705 18.4721 19.0187 18.4721C19.2075 18.4721 19.3874 18.3933 19.5184 18.2487L20.0967 17.6111L20.9386 17.79C21.1786 17.8409 21.4197 17.7625 21.5839 17.5806C21.7479 17.3986 21.801 17.1507 21.7256 16.9174L21.4187 15.9671H23.8885C24.0282 15.9671 24.1418 16.0808 24.1418 16.2204V20.3312Z" fill="black"/>
</svg>
