<svg width="215" height="215" viewBox="0 0 215 215" fill="none" 
    xmlns="http://www.w3.org/2000/svg">
    <path fill-rule="evenodd" clip-rule="evenodd" d="M107.5 17.918C58.0503 17.918 17.917 58.0513 17.917 107.501C17.917 156.951 58.0503 197.085 107.5 197.085C156.95 197.085 197.084 156.951 197.084 107.501C197.084 58.0513 156.95 17.918 107.5 17.918ZM107.5 179.168C67.9941 179.168 35.8337 147.007 35.8337 107.501C35.8337 67.9947 67.9941 35.8343 107.5 35.8343C147.007 35.8343 179.167 67.9947 179.167 107.501C179.167 147.007 147.007 179.168 107.5 179.168ZM89.5837 126.941L148.619 67.906L161.25 80.6268L89.5837 152.294L53.7503 116.46L66.3816 103.829L89.5837 126.941Z" fill="#54CF6F"/>
</svg>
