<svg width="136" height="74" viewBox="0 0 136 74" fill="none" xmlns="http://www.w3.org/2000/svg">
<path d="M135.833 12.3333C135.833 19.1167 130.283 24.6667 123.499 24.6667C122.389 24.6667 121.341 24.5433 120.354 24.235L98.401 46.1267C98.7093 47.1133 98.8327 48.2233 98.8327 49.3333C98.8327 56.1167 93.2827 61.6667 86.4993 61.6667C79.716 61.6667 74.166 56.1167 74.166 49.3333C74.166 48.2233 74.2893 47.1133 74.5977 46.1267L58.8727 30.4017C57.886 30.71 56.776 30.8333 55.666 30.8333C54.556 30.8333 53.446 30.71 52.4593 30.4017L24.401 58.5217C24.7093 59.5083 24.8327 60.5567 24.8327 61.6667C24.8327 68.45 19.2827 74 12.4993 74C5.71601 74 0.166016 68.45 0.166016 61.6667C0.166016 54.8833 5.71601 49.3333 12.4993 49.3333C13.6093 49.3333 14.6577 49.4567 15.6443 49.765L43.7643 21.7067C43.456 20.72 43.3327 19.61 43.3327 18.5C43.3327 11.7167 48.8827 6.16667 55.666 6.16667C62.4493 6.16667 67.9993 11.7167 67.9993 18.5C67.9993 19.61 67.876 20.72 67.5677 21.7067L83.2927 37.4317C84.2793 37.1233 85.3893 37 86.4993 37C87.6093 37 88.7193 37.1233 89.706 37.4317L111.598 15.4783C111.289 14.4917 111.166 13.4433 111.166 12.3333C111.166 5.55 116.716 0 123.499 0C130.283 0 135.833 5.55 135.833 12.3333Z" fill="#1F72AB"/>
</svg>
